<svg width="103" height="98" viewBox="0 0 103 98" fill="none" xmlns="http://www.w3.org/2000/svg">
<g id="02">
<g id="Group">
<path id="Vector" d="M51.4433 96.811C79.3039 96.811 101.889 75.4652 101.889 49.1339C101.889 22.8026 79.3039 1.45679 51.4433 1.45679C23.5826 1.45679 0.99707 22.8026 0.99707 49.1339C0.99707 75.4652 23.5826 96.811 51.4433 96.811Z" fill="white"/>
<path id="Vector_2" d="M51.4431 97.4855C23.2367 97.4855 0.283203 75.792 0.283203 49.1339C0.283203 22.4757 23.2367 0.782227 51.4431 0.782227C79.6496 0.782227 102.603 22.4757 102.603 49.1339C102.603 75.792 79.6496 97.4855 51.4431 97.4855ZM51.4431 2.13132C24.0218 2.13132 1.71066 23.2177 1.71066 49.1339C1.71066 75.05 24.0218 96.1364 51.4431 96.1364C78.8645 96.1364 101.176 75.05 101.176 49.1339C101.176 23.2177 78.8645 2.13132 51.4431 2.13132Z" fill="#222222"/>
</g>
<g id="Group_2">
<path id="Vector_3" d="M58.638 6.30003C58.9806 6.32701 59.2804 6.3405 59.5231 6.3405L59.4945 6.55636C59.0948 6.61032 58.7522 6.89363 58.481 7.43327L55.0837 13.855L54.9837 13.8415L54.8981 13.828L52.7426 6.66428C52.5999 6.1921 52.3572 5.93577 52.0146 5.8953L52.0432 5.67944C52.3572 5.73341 52.7712 5.77388 53.2851 5.82784C53.956 5.88181 54.4556 5.92228 54.7839 5.92228L54.7554 6.13814C54.4556 6.12465 54.2415 6.13814 54.113 6.17861C53.9845 6.21908 53.9132 6.32701 53.8989 6.46192C53.8846 6.58334 53.9132 6.75872 53.9845 6.98807L55.569 12.4654L57.9243 7.9864C58.1241 7.62214 58.2241 7.32534 58.2526 7.10949C58.2812 6.88014 58.2098 6.70476 58.0528 6.58334C57.8958 6.46192 57.6388 6.39446 57.2962 6.35399L57.3248 6.13814C57.7387 6.20559 58.1812 6.25956 58.638 6.30003Z" fill="#222222"/>
<path id="Vector_4" d="M68.2301 9.14666C68.0873 9.14666 67.9731 9.20062 67.8875 9.30855C67.8019 9.41648 67.7019 9.59186 67.602 9.84819L65.5607 14.9748C65.4608 15.2311 65.4037 15.4335 65.4037 15.5684C65.4037 15.7033 65.4466 15.8112 65.5465 15.8921C65.6464 15.9731 65.832 16.0675 66.0889 16.1755L66.0033 16.3778C65.6749 16.2429 65.2182 16.0675 64.6329 15.8517C64.0048 15.6223 63.5338 15.4739 63.2197 15.3795L63.3054 15.1771C63.5766 15.2581 63.7764 15.2985 63.9049 15.2985C64.0334 15.2985 64.1618 15.2446 64.2475 15.1367C64.3331 15.0287 64.4331 14.8533 64.533 14.597L66.5742 9.47044C66.6742 9.21412 66.7313 9.01175 66.7313 8.87684C66.7313 8.74193 66.6884 8.634 66.5885 8.55306C66.4886 8.47211 66.303 8.37768 66.0461 8.26975L66.1317 8.06738C66.4315 8.1888 66.8883 8.36418 67.5164 8.59353C68.1016 8.80939 68.5727 8.95779 68.9153 9.05222L68.8296 9.25459C68.5727 9.17364 68.3728 9.13317 68.2301 9.14666Z" fill="#222222"/>
<path id="Vector_5" d="M80.9347 16.2834C80.792 16.2564 80.6492 16.2969 80.5208 16.3778C80.3923 16.4588 80.2353 16.6207 80.064 16.85L75.9244 22.1519L75.7102 22.0035L76.2669 13.4773L72.5984 18.1721C72.4271 18.4015 72.3129 18.5903 72.2558 18.7387C72.1987 18.8871 72.2273 19.022 72.2986 19.157C72.37 19.2919 72.5413 19.4403 72.784 19.6291L72.6412 19.8045C72.4271 19.6291 72.1131 19.3998 71.6991 19.103C71.328 18.8467 71.0282 18.6443 70.7998 18.5229L70.9425 18.3475C71.1709 18.4959 71.3565 18.5768 71.4993 18.5903C71.642 18.6173 71.7847 18.5768 71.9132 18.4959C72.0417 18.4015 72.1987 18.2531 72.37 18.0237L75.7388 13.7066C75.9101 13.4773 76.0243 13.3019 76.0671 13.1805C76.1099 13.059 76.0957 12.9376 76.0243 12.8297C75.9529 12.7218 75.8102 12.5868 75.5818 12.4115L75.7245 12.2361C75.9101 12.398 76.1956 12.6138 76.581 12.8702C76.8665 13.0725 77.1091 13.2344 77.3375 13.3558L76.8808 20.5061L79.8499 16.7016C80.0212 16.4723 80.1496 16.2834 80.1924 16.135C80.2353 15.9866 80.221 15.8517 80.1496 15.7168C80.0783 15.5818 79.907 15.42 79.6643 15.2446L79.807 15.0692C80.0212 15.2446 80.3352 15.4739 80.7492 15.7707C81.1203 16.027 81.4201 16.2294 81.6484 16.3508L81.5057 16.5262C81.263 16.3913 81.0775 16.2969 80.9347 16.2834Z" fill="#222222"/>
<path id="Vector_6" d="M85.716 22.3677C86.0871 22.1114 86.4725 21.8281 86.8865 21.4773C87.2434 21.99 87.8715 22.8399 88.7708 24.0406C89.67 25.2278 90.3124 26.0642 90.6978 26.5499C90.2125 26.8197 89.7985 27.0626 89.4274 27.3054C89.1133 27.5213 88.8564 27.7101 88.6708 27.8585L88.5138 27.6562C88.9706 27.2784 89.2846 26.9681 89.4702 26.7388C89.6558 26.5094 89.7271 26.2666 89.7129 26.0103C89.6986 25.7539 89.5273 25.4436 89.2561 25.0659L88.8849 24.5802L83.4749 28.2228C83.218 28.3982 83.0324 28.5601 82.9467 28.6815C82.8611 28.8029 82.8325 28.9513 82.8896 29.1132C82.9325 29.2616 83.0609 29.4774 83.2465 29.7473L83.0609 29.8822C82.8468 29.5584 82.5185 29.0997 82.0903 28.5466C81.6335 27.9395 81.2909 27.5078 81.0625 27.2379L81.2481 27.103C81.4622 27.3594 81.6335 27.5347 81.7762 27.6292C81.919 27.7236 82.0617 27.7506 82.2187 27.7101C82.3758 27.6697 82.5899 27.5617 82.8468 27.3863L88.2569 23.7438L87.8857 23.2581C87.6002 22.8804 87.3433 22.651 87.1006 22.5431C86.858 22.4352 86.5867 22.4217 86.3013 22.5161C86.0158 22.6105 85.6018 22.7859 85.0736 23.0692L84.9166 22.8669C85.1307 22.7589 85.3877 22.597 85.716 22.3677Z" fill="#222222"/>
<path id="Vector_7" d="M88.4568 41.0932L88.2284 41.1607C88.1428 40.8639 88.0286 40.4861 87.8573 40.0274C87.6432 39.4338 87.4719 38.9886 87.3434 38.6918L87.5718 38.6244C87.6717 38.8807 87.7859 39.0696 87.8716 39.164C87.9715 39.2584 88.1 39.2854 88.2427 39.2314C88.3712 39.191 88.5282 39.0965 88.7138 38.9481L90.2982 37.7205L89.3989 35.1976L88.0714 35.1437C87.6432 35.1167 87.3149 35.1437 87.0865 35.2246C86.8581 35.3056 86.7153 35.427 86.6582 35.6024C86.6154 35.7778 86.644 36.0341 86.7439 36.3444L86.5155 36.4118C86.4013 36.0071 86.2585 35.6024 86.1158 35.1976C86.0016 34.8874 85.9017 34.631 85.8018 34.4287L86.0302 34.3612C86.23 34.685 86.6582 34.8604 87.2863 34.8739L94.8804 35.1976L94.9375 35.3595L88.8851 40.1219C88.5139 40.4591 88.3712 40.7694 88.4568 41.0932ZM93.4101 35.3595L89.6702 35.2111L90.5124 37.5856L93.4101 35.3595Z" fill="#222222"/>
<path id="Vector_8" d="M89.4993 51.4139C89.6421 51.36 89.7134 51.2925 89.7134 51.1981C89.7134 51.1441 89.6992 51.1037 89.6706 51.0632C89.6421 51.0227 89.585 50.9418 89.4993 50.8338C89.2852 50.5775 89.1282 50.3077 89.014 50.0379C88.8998 49.768 88.8427 49.4578 88.8427 49.1205C88.8284 48.365 88.9854 47.7174 89.2995 47.1643C89.6278 46.6112 90.0846 46.1929 90.7127 45.8961C91.3265 45.5993 92.0687 45.4509 92.9395 45.4374C93.8388 45.424 94.6239 45.5589 95.2948 45.8557C95.9657 46.1525 96.4938 46.5572 96.865 47.0968C97.2361 47.6365 97.436 48.2436 97.436 48.9181C97.436 49.2149 97.4074 49.4847 97.3503 49.7141C97.2932 49.9434 97.2076 50.1458 97.1076 50.3212C97.0077 50.4966 96.8793 50.6989 96.708 50.9148C96.6366 51.0092 96.5938 51.0902 96.5938 51.1441C96.5938 51.279 96.8364 51.3735 97.3075 51.4139V51.6703C96.8079 51.6433 95.9086 51.6433 94.6239 51.6703V51.4139C95.0378 51.3465 95.3804 51.2655 95.6516 51.1846C95.9229 51.1037 96.1513 50.9822 96.3511 50.8338C96.6223 50.618 96.8507 50.3347 97.0077 49.9839C97.1647 49.6331 97.2361 49.2824 97.2361 48.9046C97.2218 48.4189 97.0506 48.0007 96.708 47.6365C96.3654 47.2722 95.88 47.0024 95.2662 46.8C94.6382 46.6112 93.9244 46.5167 93.0965 46.5302C92.1544 46.5437 91.3978 46.6516 90.7983 46.854C90.1988 47.0564 89.7705 47.3532 89.485 47.7444C89.1996 48.1356 89.0711 48.6348 89.0854 49.2419C89.0996 49.6871 89.2281 50.0648 89.4708 50.3886C89.5707 50.5235 89.6563 50.6045 89.7563 50.645C89.8419 50.6854 89.9704 50.6989 90.1274 50.6989L91.2551 50.6854C91.5834 50.6854 91.8118 50.645 91.9688 50.591C92.1116 50.537 92.2258 50.4291 92.2686 50.2672C92.3257 50.1188 92.3542 49.876 92.3542 49.5522H92.5826C92.5683 49.9164 92.5541 50.4291 92.5683 51.1171C92.5826 51.6298 92.5969 52.021 92.6254 52.2639H92.397C92.3828 52.0885 92.3399 51.9671 92.2971 51.8996C92.2543 51.8322 92.1544 51.7782 92.0259 51.7512C91.8974 51.7242 91.6833 51.7107 91.3836 51.7242L89.0711 51.7647V51.5489C89.1996 51.4949 89.3566 51.4679 89.4993 51.4139Z" fill="#222222"/>
<path id="Vector_9" d="M87.8007 62.8947C87.3868 62.7733 86.9014 62.6518 86.3447 62.5439C86.5303 62.0717 86.8015 61.2758 87.1869 60.1425C87.6437 58.7934 87.972 57.7681 88.1719 57.0801L88.4003 57.1475C88.3289 57.4039 88.3003 57.5927 88.3003 57.7276C88.3146 57.8626 88.3717 57.957 88.4859 58.0379C88.6001 58.1189 88.7999 58.1998 89.0712 58.2808L94.5954 59.9267C94.8809 60.0076 95.0807 60.0481 95.2235 60.0481C95.3662 60.0481 95.4804 59.9941 95.5661 59.8862C95.6517 59.7783 95.7374 59.6029 95.8373 59.3601L96.0657 59.4275C95.8087 60.1155 95.4662 61.1274 95.0094 62.4765C94.6668 63.5018 94.4241 64.2438 94.3099 64.689C93.8389 64.5001 93.4106 64.3382 93.0109 64.2303C92.7254 64.1493 92.4828 64.0819 92.3115 64.0549L92.3971 63.8121C92.8967 63.9065 93.2822 63.947 93.5391 63.947C93.796 63.947 94.0101 63.866 94.1814 63.7041C94.3527 63.5557 94.4955 63.2859 94.624 62.9217L94.9094 62.0448C94.9951 61.7884 95.0379 61.5996 95.0236 61.4781C95.0094 61.3567 94.9665 61.2488 94.8523 61.1678C94.7382 61.0869 94.5526 61.006 94.2671 60.925L91.6406 60.1425L91.4122 60.8441C91.298 61.1948 91.3265 61.4646 91.5121 61.6535C91.6977 61.8424 91.8975 61.9773 92.1259 62.0717C92.3543 62.1662 92.497 62.2336 92.5541 62.2606L92.4685 62.5035C92.1116 62.3685 91.769 62.2471 91.4265 62.1527L90.8983 62.0043C90.5272 61.8964 89.9847 61.748 89.2996 61.5996L89.3852 61.3567C89.4423 61.3702 89.6279 61.3972 89.9419 61.4646C90.2559 61.5186 90.5272 61.4916 90.7413 61.3837C90.9554 61.2758 91.0981 61.0734 91.1981 60.7901L91.4265 60.0886L88.7428 59.2926C88.4574 59.2117 88.2575 59.1712 88.1148 59.1712C87.972 59.1712 87.8578 59.2251 87.7865 59.3331C87.7008 59.441 87.6152 59.6164 87.5295 59.8727L87.2726 60.6417C87.1298 61.0869 87.0727 61.4377 87.1298 61.694C87.1726 61.9638 87.3154 62.1797 87.5581 62.3685C87.8007 62.5439 88.1719 62.7463 88.6715 62.9621L88.5858 63.205C88.4145 63.0836 88.1433 63.0026 87.8007 62.8947Z" fill="#222222"/>
<path id="Vector_10" d="M83.7326 79.4481C83.7897 79.3267 83.7755 79.2053 83.7184 79.0839C83.6613 78.9625 83.5185 78.8141 83.3044 78.6117L79.1077 74.8207C78.8936 74.6319 78.7223 74.5104 78.5938 74.4565C78.4653 74.4025 78.3369 74.4025 78.2084 74.4565C78.0799 74.5104 77.9229 74.6319 77.7231 74.8207L77.5518 74.6723C77.823 74.443 78.1656 74.1057 78.6081 73.6875C79.0649 73.2288 79.4074 72.878 79.6216 72.6487L79.7929 72.7971C79.6073 72.9994 79.4931 73.1613 79.436 73.2693C79.3789 73.3907 79.3932 73.5121 79.4503 73.6335C79.5074 73.7549 79.6501 73.9033 79.8642 74.1057L84.0609 77.8967C84.2751 78.0855 84.4464 78.207 84.5748 78.2609C84.7033 78.3149 84.8318 78.3149 84.9602 78.2609C85.0887 78.207 85.2457 78.0855 85.4456 77.8967L85.6169 78.0451C85.3742 78.2474 85.0173 78.5847 84.5606 79.0434C84.118 79.4751 83.7897 79.8259 83.5613 80.0822L83.39 79.9338C83.5613 79.7314 83.6755 79.5696 83.7326 79.4481Z" fill="#222222"/>
<path id="Vector_11" d="M71.8421 87.6775C71.9277 87.5561 71.942 87.4347 71.9135 87.2863C71.8849 87.1379 71.785 86.949 71.628 86.6926L68.0879 81.0129L68.3163 80.878L76.3957 84.696L73.2695 79.6773C73.1125 79.4345 72.9841 79.2591 72.8556 79.1647C72.7271 79.0702 72.5844 79.0298 72.4274 79.0433C72.2703 79.0568 72.0562 79.1377 71.785 79.2726L71.6565 79.0837C71.9135 78.9758 72.2561 78.7869 72.6986 78.5441C73.0983 78.3147 73.398 78.1394 73.6121 77.991L73.7263 78.1798C73.4979 78.3147 73.3409 78.4497 73.2695 78.5711C73.1839 78.6925 73.1696 78.8139 73.1982 78.9623C73.2267 79.1107 73.3266 79.2996 73.4837 79.5559L76.3671 84.1833C76.5099 84.4262 76.6383 84.5881 76.7525 84.669C76.8667 84.7499 76.9809 84.7904 77.1237 84.7634C77.2521 84.7365 77.452 84.669 77.6947 84.5476L77.8089 84.7365C77.5805 84.8444 77.2664 85.0063 76.8525 85.2356C76.5527 85.3975 76.2957 85.5594 76.0816 85.6943L69.3012 82.497L71.8421 86.5712C71.9991 86.8141 72.1276 86.9894 72.2561 87.0839C72.3702 87.1783 72.513 87.2188 72.6843 87.2053C72.8556 87.1918 73.0697 87.1109 73.3409 86.976L73.4551 87.1648C73.1982 87.2728 72.8556 87.4616 72.4131 87.7045C72.0134 87.9338 71.7136 88.1092 71.4995 88.2576L71.3853 88.0687C71.5994 87.9203 71.7564 87.7854 71.8421 87.6775Z" fill="#222222"/>
<path id="Vector_12" d="M63.9906 89.445C64.0906 89.8632 64.219 90.3219 64.3903 90.8076C63.748 90.9155 62.6774 91.1314 61.1643 91.4282C59.6512 91.7385 58.5949 91.9678 57.9668 92.1162C57.8954 91.5901 57.824 91.1314 57.7241 90.7132C57.6385 90.3489 57.5671 90.0521 57.4814 89.8362L57.7384 89.7823C57.924 90.3354 58.0953 90.7266 58.2523 90.983C58.4093 91.2393 58.6091 91.4012 58.8661 91.4821C59.123 91.5631 59.4942 91.5496 59.9652 91.4552L60.579 91.3337L59.1801 85.1953C59.1087 84.8985 59.0374 84.6827 58.9374 84.5613C58.8375 84.4398 58.7233 84.3589 58.552 84.3454C58.3807 84.3184 58.1238 84.3454 57.7812 84.3994L57.7384 84.1835C58.1381 84.1296 58.7091 84.0216 59.4228 83.8732C60.1793 83.7113 60.7503 83.5899 61.1072 83.4955L61.15 83.7113C60.8074 83.7923 60.579 83.8732 60.4363 83.9542C60.2935 84.0351 60.2079 84.1565 60.1793 84.3049C60.1508 84.4533 60.1651 84.6827 60.2364 84.9795L61.6353 91.1179L62.2491 90.9965C62.7202 90.902 63.0628 90.7671 63.2626 90.5917C63.4625 90.4164 63.5767 90.187 63.6052 89.9037C63.6338 89.6204 63.6195 89.1887 63.5481 88.6221L63.8051 88.5681C63.8479 88.7839 63.905 89.0807 63.9906 89.445Z" fill="#222222"/>
<path id="Vector_13" d="M45.0487 85.654C45.0916 85.2358 45.1058 84.7636 45.1058 84.2374C45.634 84.3049 46.519 84.3858 47.7752 84.4938C49.2597 84.6152 50.3874 84.7096 51.1582 84.7501L51.144 84.9659C50.8585 84.9524 50.6586 84.9659 50.5302 85.0064C50.4017 85.0469 50.3018 85.1143 50.2447 85.2358C50.1876 85.3572 50.1447 85.5595 50.1162 85.8294L49.6023 91.2932C49.5738 91.563 49.588 91.7654 49.6166 91.9003C49.6451 92.0352 49.7308 92.1296 49.8592 92.1836C49.9877 92.2376 50.1876 92.2915 50.4588 92.3185L50.4445 92.5344C49.688 92.4534 48.5603 92.3455 47.0757 92.2241C45.9337 92.1296 45.1201 92.0757 44.6348 92.0487C44.7347 91.5765 44.8061 91.1448 44.8346 90.7536C44.8632 90.4703 44.8774 90.2409 44.8632 90.0655L45.1344 90.0925C45.1486 90.5782 45.1772 90.9289 45.2486 91.1718C45.3057 91.4146 45.4341 91.59 45.634 91.7114C45.8196 91.8328 46.1336 91.9138 46.5333 91.9408L47.504 92.0217C47.7894 92.0487 47.9893 92.0352 48.1178 92.0082C48.2462 91.9812 48.3461 91.9003 48.4032 91.7789C48.4603 91.6575 48.5032 91.4551 48.5317 91.1853L48.7744 88.595L48.0036 88.5276C47.6181 88.5006 47.3469 88.5815 47.1899 88.7974C47.0472 89.0132 46.933 89.2291 46.8901 89.4584C46.833 89.6878 46.8045 89.8362 46.7902 89.9036L46.519 89.8767C46.5761 89.5124 46.6189 89.1751 46.6618 88.8378L46.7046 88.3117C46.7331 87.9339 46.7617 87.4213 46.7902 86.7467L47.0614 86.7737C47.0614 86.8277 47.0757 87.0031 47.0757 87.3134C47.09 87.6237 47.1614 87.8665 47.3327 88.0284C47.4897 88.2038 47.7323 88.2982 48.0464 88.3252L48.8172 88.3926L49.0599 85.7484C49.0884 85.4786 49.0741 85.2762 49.0456 85.1413C49.017 85.0199 48.9314 84.9255 48.8029 84.8715C48.6745 84.8175 48.4746 84.7771 48.2034 84.7501L47.3469 84.6826C46.8616 84.6422 46.4905 84.6691 46.2192 84.7771C45.9623 84.8715 45.7625 85.0604 45.6197 85.3167C45.477 85.573 45.3628 85.9643 45.2486 86.4769L44.9774 86.4499C44.9774 86.2476 45.0059 85.9778 45.0487 85.654Z" fill="#222222"/>
<path id="Vector_14" d="M33.8147 80.6488C34.0288 80.6083 34.2715 80.6488 34.5284 80.7567C34.8282 80.8782 35.028 81.0535 35.1422 81.2829C35.2564 81.5257 35.2707 81.863 35.1993 82.3082L34.9852 83.4145C34.9138 83.8057 34.871 84.1025 34.8567 84.3319C34.8425 84.5477 34.8996 84.7501 34.9995 84.9255C35.0994 85.1008 35.285 85.2357 35.5562 85.3437L36.584 85.7484L37.626 83.401C37.7402 83.1446 37.7973 82.9558 37.8116 82.8209C37.8258 82.686 37.7687 82.578 37.6688 82.4836C37.5689 82.3892 37.3976 82.2947 37.1407 82.1868L37.2263 81.9844C37.5546 82.1328 37.9971 82.3217 38.5824 82.551C39.1962 82.7939 39.6673 82.9693 39.9813 83.0637L39.8957 83.2661C39.6244 83.1716 39.4246 83.1312 39.2961 83.1177C39.1534 83.1177 39.0392 83.1581 38.9535 83.2661C38.8536 83.3605 38.7537 83.5359 38.6395 83.7922L36.3984 88.8513C36.2842 89.1077 36.2271 89.2965 36.2128 89.4314C36.1985 89.5663 36.2556 89.6743 36.3556 89.7687C36.4555 89.8632 36.6268 89.9576 36.8837 90.079L36.7981 90.2814C36.4983 90.1465 36.0701 89.9576 35.4991 89.7282C35.2136 89.6203 34.9138 89.4989 34.5712 89.364C34.2287 89.2291 34.0003 89.1481 33.8718 89.0942C33.3151 88.8648 32.8726 88.6085 32.5443 88.2982C32.216 87.9879 32.0304 87.6641 31.9447 87.3134C31.8591 86.9626 31.9019 86.6253 32.0589 86.288C32.1731 86.0182 32.3587 85.7754 32.6156 85.5595C32.8726 85.3437 33.2009 85.1818 33.6006 85.1008C34.0003 85.0199 34.4856 85.0334 35.0138 85.1548L34.8853 85.0873C34.5855 84.912 34.3571 84.7366 34.2144 84.5477C34.0716 84.3723 33.9717 84.17 33.9432 83.9541C33.9003 83.7383 33.9146 83.4684 33.9717 83.1446L34.1716 81.9979C34.2144 81.7686 34.2429 81.5932 34.2429 81.4583C34.2429 81.3234 34.2287 81.2154 34.1858 81.1345C34.143 81.0535 34.0716 80.9861 33.9717 80.9591C33.8575 80.9051 33.7433 80.9051 33.6434 80.9321C33.5435 80.9591 33.4007 81.0266 33.2152 81.121L33.101 80.9456C33.3579 80.7972 33.6006 80.6893 33.8147 80.6488ZM34.5284 85.4516C34.1858 85.4921 33.9146 85.6135 33.7005 85.8159C33.4864 86.0182 33.3008 86.288 33.1438 86.6388C32.9011 87.1919 32.844 87.6776 33.0011 88.0688C33.1581 88.4601 33.5435 88.7839 34.1858 89.0402C34.4142 89.1346 34.5855 89.1751 34.7283 89.1616C34.8567 89.1616 34.9709 89.1077 35.0709 88.9997C35.1708 88.8918 35.2707 88.7164 35.3706 88.4736L36.484 85.9643L35.756 85.681C35.285 85.4921 34.871 85.4111 34.5284 85.4516Z" fill="#222222"/>
<path id="Vector_15" d="M22.6803 82.4836C22.8088 82.5241 22.9372 82.4971 23.0514 82.4297C23.1656 82.3622 23.3226 82.2138 23.5082 81.998L27.0911 77.6808C27.2767 77.465 27.3909 77.2896 27.4337 77.1682C27.4765 77.0468 27.4623 76.9253 27.3909 76.8174C27.3195 76.7095 27.1768 76.5611 26.9627 76.3857L27.1054 76.2103C27.3766 76.4397 27.7478 76.7365 28.2474 77.1007C28.7755 77.492 29.1752 77.7753 29.4464 77.9507L29.3037 78.126C29.0753 77.9642 28.8897 77.8697 28.7612 77.8427C28.6328 77.8023 28.5043 77.8158 28.3901 77.8967C28.2759 77.9642 28.1189 78.1126 27.9333 78.3284L24.3504 82.6455C24.1648 82.8614 24.0507 83.0368 24.0078 83.1582C23.965 83.2796 23.9793 83.401 24.0506 83.5089C24.122 83.6169 24.2648 83.7653 24.4789 83.9407L24.3361 84.116C24.0935 83.9137 23.7081 83.6169 23.1799 83.2121C22.6803 82.8479 22.2806 82.5646 21.9951 82.3757L22.1379 82.2003C22.3805 82.3487 22.5518 82.4432 22.6803 82.4836Z" fill="#222222"/>
<path id="Vector_16" d="M13.4586 72.8781C13.4015 72.271 13.5442 71.6639 13.8725 71.0838C14.2151 70.4902 14.729 69.964 15.4427 69.4649C16.1422 68.9927 16.8416 68.6824 17.5696 68.561C18.2976 68.4395 18.9685 68.48 19.5966 68.7094C20.2247 68.9387 20.7529 69.3299 21.1668 69.8831C21.6093 70.4497 21.852 71.0433 21.9091 71.6504C21.9662 72.2575 21.8234 72.8646 21.4951 73.4447C21.1525 74.0383 20.6387 74.5644 19.9249 75.0636C19.2255 75.5358 18.526 75.8461 17.798 75.9675C17.0843 76.0889 16.3991 76.0484 15.771 75.8191C15.143 75.5898 14.6148 75.1985 14.2008 74.6589C13.7583 74.0788 13.5157 73.4852 13.4586 72.8781ZM15.5997 75.2795C16.0994 75.3739 16.6703 75.3334 17.2984 75.1445C17.9265 74.9557 18.5546 74.6454 19.2112 74.1867C19.8678 73.7415 20.3817 73.2558 20.7386 72.7432C21.1097 72.2305 21.3096 71.7178 21.3381 71.2322C21.3809 70.7465 21.2525 70.3148 20.9812 69.9505C20.6815 69.5728 20.2961 69.3299 19.7822 69.2355C19.2826 69.1411 18.7116 69.1815 18.0835 69.3704C17.4554 69.5593 16.8274 69.8696 16.1707 70.3148C15.5141 70.76 15.0002 71.2457 14.6434 71.7718C14.2722 72.2845 14.0724 72.7836 14.0295 73.2828C13.9867 73.7685 14.1152 74.2002 14.3864 74.5644C14.6862 74.9422 15.0859 75.185 15.5997 75.2795Z" fill="#222222"/>
<path id="Vector_17" d="M14.5577 56.6349C14.729 56.7564 14.8574 56.9587 14.9431 57.2285C15.043 57.5119 15.0287 57.7817 14.9145 58.011C14.8003 58.2539 14.5291 58.4832 14.1152 58.7125L13.0731 59.2657C12.7163 59.468 12.445 59.6299 12.2595 59.7648C12.0739 59.8998 11.9454 60.0617 11.8741 60.2505C11.8027 60.4394 11.8027 60.6553 11.8883 60.9251L12.2167 61.9369L14.7861 61.1814C15.0716 61.1005 15.2571 61.0195 15.3713 60.9386C15.4855 60.8576 15.5426 60.7497 15.5569 60.6283C15.5712 60.5069 15.5283 60.3045 15.457 60.0482L15.6854 59.9807C15.771 60.3045 15.8995 60.7632 16.0993 61.3298C16.2992 61.9369 16.4562 62.3821 16.5704 62.6654L16.342 62.7329C16.2421 62.4765 16.1564 62.3011 16.0708 62.2067C15.9851 62.1123 15.8709 62.0448 15.7282 62.0448C15.5854 62.0448 15.3713 62.0718 15.1001 62.1662L9.56159 63.7852C9.2761 63.8661 9.09053 63.9471 8.97633 64.028C8.86214 64.1089 8.80504 64.2169 8.79077 64.3383C8.77649 64.4732 8.81931 64.6621 8.89069 64.9184L8.66229 64.9859C8.59092 64.6891 8.46245 64.2573 8.27688 63.6907C8.19123 63.4209 8.07704 63.1106 7.96284 62.7868C7.84865 62.463 7.763 62.2337 7.72018 62.1123C7.53461 61.5591 7.47751 61.0735 7.52033 60.6418C7.56316 60.21 7.7059 59.8593 7.93429 59.576C8.16269 59.2927 8.46245 59.1038 8.83359 58.9959C9.11908 58.9149 9.43312 58.8879 9.77571 58.9284C10.1183 58.9689 10.4466 59.1038 10.7892 59.3466C11.1318 59.5895 11.4173 59.9402 11.6599 60.4124L11.6457 60.2775C11.6028 59.9402 11.5886 59.6704 11.6457 59.4411C11.7028 59.2117 11.8027 59.0228 11.9454 58.861C12.1025 58.6991 12.3308 58.5237 12.6306 58.3618L13.6869 57.7682C13.901 57.6603 14.0723 57.5523 14.1723 57.4714C14.2722 57.3904 14.3578 57.3095 14.4007 57.2285C14.4435 57.1476 14.4435 57.0532 14.4149 56.9587C14.3721 56.8373 14.315 56.7564 14.2294 56.7024C14.1437 56.6484 14.001 56.581 13.8011 56.5135L13.8725 56.3112C14.158 56.4056 14.4007 56.5135 14.5577 56.6349ZM11.1461 60.2505C10.9034 60.0347 10.6179 59.9132 10.3181 59.8863C10.0184 59.8593 9.67579 59.8998 9.29037 60.0212C8.67657 60.1966 8.26261 60.4799 8.03421 60.8441C7.80582 61.2084 7.80582 61.7075 8.00567 62.3146C8.07704 62.5305 8.16269 62.6924 8.24833 62.7868C8.33398 62.8813 8.46245 62.9352 8.6052 62.9352C8.74794 62.9352 8.96206 62.8948 9.219 62.8273L11.9597 62.0178L11.7313 61.3028C11.5886 60.8171 11.3887 60.4664 11.1461 60.2505Z" fill="#222222"/>
<path id="Vector_18" d="M13.4587 43.832C14.0012 43.6027 14.3295 43.171 14.4722 42.5234C14.5151 42.2806 14.5151 42.0377 14.4437 41.8084C14.3723 41.579 14.2438 41.3767 14.044 41.2013C13.8442 41.0259 13.5729 40.9045 13.2161 40.8505C12.9163 40.7965 12.6451 40.8235 12.3882 40.918C12.1312 41.0124 11.8743 41.1608 11.6316 41.3632C11.3889 41.5655 11.1035 41.8353 10.7894 42.1726C10.4325 42.5504 10.1185 42.8607 9.84729 43.0765C9.57608 43.3059 9.27631 43.4678 8.948 43.5892C8.61968 43.7106 8.24854 43.7241 7.83458 43.6566C7.40635 43.5757 7.04948 43.4273 6.79254 43.1844C6.5356 42.9416 6.35003 42.6583 6.26438 42.321C6.17874 41.9837 6.17874 41.633 6.25011 41.2552C6.29293 41.0259 6.35003 40.8505 6.4214 40.6886C6.49278 40.5267 6.56415 40.4053 6.6498 40.3109C6.73544 40.2164 6.82109 40.1085 6.93529 40.0006C7.07803 39.8522 7.1494 39.7442 7.17795 39.6633C7.19223 39.5958 7.16368 39.5419 7.09231 39.4879C7.02093 39.434 6.89246 39.3935 6.72117 39.3395L6.76399 39.0967C7.2065 39.2046 7.97733 39.3665 9.10502 39.5689L9.06219 39.8117C8.66251 39.7712 8.29137 39.7847 7.92023 39.8657C7.56337 39.9331 7.24933 40.0815 6.99238 40.3109C6.73544 40.5267 6.56415 40.837 6.49278 41.2148C6.43568 41.4711 6.44995 41.7004 6.52133 41.9298C6.5927 42.1591 6.72117 42.3345 6.89246 42.4829C7.07803 42.6313 7.29215 42.7258 7.54909 42.7797C7.96305 42.8472 8.31992 42.7932 8.61968 42.6043C8.91945 42.4155 9.20494 42.1726 9.47615 41.8893C9.74737 41.606 9.91867 41.4171 10.0186 41.3227C10.4183 40.918 10.7466 40.6077 11.0178 40.3783C11.289 40.149 11.5888 39.9871 11.9171 39.8792C12.2454 39.7712 12.6023 39.7577 12.9877 39.8252C13.4587 39.9061 13.8442 40.0815 14.1297 40.3378C14.4151 40.6077 14.6007 40.918 14.7006 41.2957C14.8006 41.6735 14.8006 42.0782 14.7149 42.5099C14.6435 42.8607 14.5579 43.1305 14.4294 43.3463C14.3152 43.5622 14.1582 43.7511 13.9869 43.9264C13.8442 44.0748 13.7728 44.1828 13.7442 44.2637C13.73 44.3312 13.7585 44.3851 13.8299 44.4391C13.9013 44.4931 14.0297 44.547 14.201 44.5875L14.1582 44.8303C13.7442 44.7224 12.8307 44.547 11.4175 44.3042L11.4603 44.0614C12.2597 44.1288 12.9163 44.0614 13.4587 43.832Z" fill="#222222"/>
<path id="Vector_19" d="M10.6321 32.459C10.2324 32.2566 9.7756 32.0678 9.26172 31.8789C9.57576 31.3527 10.1039 30.4354 10.8176 29.1267C11.5314 27.8316 12.031 26.9142 12.3022 26.3611C12.7733 26.6444 13.2015 26.8872 13.5869 27.0761C13.9295 27.2515 14.2293 27.3729 14.4577 27.4673L14.3292 27.6967C13.7582 27.4808 13.33 27.3459 13.0302 27.3055C12.7304 27.2515 12.4592 27.3055 12.2308 27.4404C12.0024 27.5753 11.774 27.8451 11.5599 28.2498L11.2744 28.7895L17.1698 31.69C17.4553 31.8384 17.6837 31.9059 17.8407 31.9194C17.9977 31.9329 18.1405 31.8924 18.269 31.7845C18.3974 31.6765 18.5402 31.4742 18.7115 31.1909L18.9256 31.2988C18.7115 31.6361 18.4402 32.1082 18.0977 32.7288C17.7408 33.3764 17.4839 33.8756 17.3268 34.1859L17.1127 34.0779C17.2555 33.7811 17.3554 33.5518 17.3697 33.4034C17.3982 33.2415 17.3554 33.1066 17.2412 32.9852C17.127 32.8637 16.9414 32.7423 16.6559 32.5939L10.7605 29.6799L10.4608 30.206C10.2324 30.6107 10.1325 30.9345 10.1467 31.1909C10.161 31.4472 10.2752 31.6765 10.4893 31.8789C10.7034 32.0813 11.0603 32.3511 11.5742 32.6614L11.4457 32.8907C11.2602 32.7828 10.9747 32.6344 10.6321 32.459Z" fill="#222222"/>
<path id="Vector_20" d="M20.7105 16.958C20.9531 16.7287 21.153 16.5128 21.2957 16.351L21.467 16.5128C21.3814 16.6343 21.3385 16.8096 21.3528 17.012C21.3671 17.2144 21.4242 17.4977 21.5384 17.835L22.8374 21.491L24.3505 22.9076C24.5646 23.0964 24.7216 23.2313 24.8501 23.2853C24.9786 23.3393 25.107 23.3393 25.2355 23.2853C25.364 23.2313 25.521 23.1099 25.7351 22.9345L25.9064 23.0964C25.6352 23.3258 25.2783 23.6496 24.8358 24.0678C24.3648 24.513 24.0222 24.8638 23.808 25.0931L23.6368 24.9312C23.8223 24.7288 23.9508 24.5804 24.0079 24.459C24.065 24.3376 24.065 24.2162 23.9936 24.0948C23.9365 23.9734 23.7938 23.8115 23.5939 23.6226L22.3378 22.4489L17.5701 21.1268C17.2846 21.0458 17.0705 21.0188 16.9277 21.0323C16.785 21.0458 16.685 21.0863 16.6137 21.1537L16.4424 20.9918C16.6708 20.803 16.9277 20.5871 17.1847 20.3308C17.7128 19.8181 18.0982 19.4539 18.3123 19.211L18.4836 19.3729C18.0982 19.7372 18.0126 20.0205 18.2267 20.2229C18.3123 20.3038 18.4265 20.3578 18.5978 20.4117L22.609 21.5855L21.5527 18.6039C21.3956 18.1722 21.2386 17.8754 21.0673 17.727C20.9103 17.5786 20.739 17.5382 20.5534 17.5921C20.3679 17.6461 20.1538 17.781 19.8968 18.0103L19.7255 17.8484C20.0681 17.5516 20.3822 17.2548 20.7105 16.958Z" fill="#222222"/>
<path id="Vector_21" d="M29.346 11.5211C29.2603 11.6155 29.2175 11.7369 29.246 11.8718C29.2746 12.0068 29.346 12.1956 29.4887 12.4385L32.2437 17.2682C32.3864 17.5111 32.5006 17.673 32.6148 17.7674C32.7148 17.8618 32.8432 17.8888 32.9717 17.8753C33.1002 17.8618 33.3 17.7809 33.5427 17.6595L34.2992 17.2682C34.7275 17.0524 35.0272 16.823 35.1843 16.5937C35.3413 16.3643 35.3984 16.108 35.3555 15.7977C35.3127 15.4874 35.1843 15.0962 34.9559 14.5835L35.1985 14.4621C35.2984 14.678 35.4412 14.9478 35.6268 15.2716C35.8409 15.6358 36.0978 16.0406 36.4119 16.4858C35.9408 16.7016 35.1414 17.0929 34.0423 17.6595C32.729 18.334 31.7298 18.8467 31.0732 19.2109L30.959 19.0221C31.2017 18.8872 31.373 18.7657 31.4586 18.6713C31.5442 18.5769 31.5871 18.4554 31.5585 18.3205C31.53 18.1856 31.4586 17.9968 31.3159 17.7539L28.5323 12.9241C28.3896 12.6813 28.2754 12.5194 28.1612 12.425C28.0613 12.3305 27.9328 12.3036 27.8043 12.3171C27.6616 12.3305 27.476 12.398 27.2191 12.5194L27.1191 12.3171C27.4189 12.1956 27.8614 11.9798 28.4467 11.6695C29.0034 11.3862 29.4316 11.1568 29.7314 10.9814L29.8456 11.1703C29.6029 11.3052 29.4459 11.4266 29.346 11.5211Z" fill="#222222"/>
<path id="Vector_22" d="M46.7328 12.3844C46.8185 12.7891 46.9469 13.2478 47.104 13.7605C46.5758 13.8414 45.7051 13.9898 44.4774 14.2192C43.0072 14.489 41.908 14.7048 41.1515 14.8667L41.1087 14.6509C41.3799 14.5834 41.5797 14.5294 41.6939 14.4485C41.8081 14.381 41.8795 14.2731 41.8938 14.1517C41.908 14.0168 41.8938 13.8144 41.8367 13.5446L40.7232 8.16171C40.6661 7.89189 40.6091 7.70301 40.5234 7.5816C40.4378 7.46018 40.3521 7.39272 40.2094 7.37923C40.0809 7.35225 39.8668 7.36574 39.5956 7.40621L39.5527 7.19036C40.3093 7.06894 41.4227 6.88007 42.8787 6.61025C44.0064 6.39439 44.8058 6.24599 45.2625 6.13806C45.3054 6.62374 45.3767 7.05545 45.4481 7.43319C45.5052 7.71651 45.5623 7.93236 45.6194 8.09425L45.3625 8.14822C45.2055 7.68952 45.0627 7.35225 44.9342 7.13639C44.8058 6.92054 44.6202 6.78563 44.4061 6.71817C44.1777 6.65072 43.8779 6.65072 43.464 6.73166L42.5076 6.90705C42.2363 6.96101 42.0365 7.01497 41.9223 7.08243C41.8081 7.14988 41.7367 7.24432 41.7082 7.37923C41.6939 7.51414 41.7082 7.71651 41.7653 7.98632L42.2934 10.5496L43.05 10.4012C43.4354 10.3338 43.6638 10.1719 43.7494 9.92902C43.8351 9.68619 43.8636 9.45684 43.8494 9.22749C43.8351 8.99815 43.8208 8.84975 43.8208 8.78229L44.0778 8.72833C44.1206 9.09258 44.1777 9.42986 44.2491 9.75364L44.3633 10.2663C44.4346 10.6306 44.5631 11.1432 44.7487 11.7908L44.4917 11.8447C44.4774 11.7908 44.4204 11.6289 44.3204 11.3321C44.2205 11.0353 44.0778 10.8329 43.8636 10.7115C43.6495 10.5901 43.4069 10.5631 43.0928 10.6171L42.3363 10.752L42.8787 13.3557C42.9358 13.6256 42.9929 13.8144 43.0643 13.9358C43.1356 14.0438 43.2356 14.1112 43.3783 14.1382C43.5068 14.1517 43.7209 14.1382 43.9921 14.0842L44.8343 13.9224C45.3054 13.8279 45.6622 13.7065 45.8906 13.5446C46.119 13.3827 46.2475 13.1534 46.3046 12.8701C46.3617 12.5867 46.3617 12.182 46.3189 11.6559L46.5758 11.6019C46.6186 11.8043 46.6615 12.0606 46.7328 12.3844Z" fill="#222222"/>
</g>
<g id="Group_3">
<path id="Vector_23" d="M37.1113 63.9065C36.4547 63.07 35.8837 62.1527 35.3841 61.1408C34.8845 60.129 34.4848 59.1037 34.185 58.0514C33.5284 53.424 33.5141 48.9315 34.1279 44.5739C34.7417 40.2163 35.7409 35.9262 37.1113 31.69C37.3397 31.2179 37.8393 30.9885 38.6101 30.9885C39.381 30.9885 40.1375 31.1504 40.9083 31.4742C41.6792 31.798 42.3072 32.2297 42.8068 32.7693C43.3065 33.309 43.4207 33.8756 43.1494 34.4557C42.7212 35.3191 42.3072 36.4928 41.8933 37.9498C41.4793 39.4204 41.0654 41.0393 40.6942 42.8066C40.3088 44.5739 39.9805 46.4357 39.695 48.3649C39.4095 50.2941 39.1954 52.1558 39.0669 53.9232C38.9384 55.6905 38.9099 57.2959 38.9813 58.7259C39.0526 60.156 39.281 61.2892 39.6664 62.1122C41.465 59.8322 43.1066 57.4713 44.6054 55.0294C46.1043 52.5876 47.5032 50.1187 48.8164 47.5959C50.1297 45.0866 51.3858 42.5503 52.5706 39.9735C53.7554 37.4102 54.9259 34.8739 56.0679 32.3781C56.6389 31.1099 57.2099 29.7743 57.7666 28.3713C58.3233 26.9547 59.0513 25.754 59.9791 24.7422C60.3645 24.4184 60.6643 24.3105 60.8641 24.4184C61.0782 24.5263 61.221 24.7287 61.2924 25.039C61.3637 25.3493 61.4066 25.6731 61.4066 26.0103C61.4066 26.3476 61.4066 26.6174 61.4066 26.7928C61.1353 28.4522 60.907 30.0981 60.7214 31.7305C60.5358 33.3629 60.1219 34.9279 59.5223 36.4524C58.5231 38.8403 57.5096 41.2012 56.4533 43.5621C55.397 45.9095 54.2693 48.23 53.0702 50.5099C51.8712 52.7899 50.5579 55.0024 49.1733 57.1475C47.7744 59.3061 46.2613 61.3567 44.6054 63.2994C43.3065 64.8509 42.0075 65.6738 40.737 65.7682C39.4095 65.8762 38.2247 65.2421 37.1113 63.9065Z" fill="#222222" stroke="white" stroke-miterlimit="10"/>
<path id="Vector_24" d="M60.75 57.7815C59.9792 56.7697 59.2226 55.7444 58.4804 54.6921C57.7381 53.6398 57.3669 52.4931 57.3669 51.2249C57.3669 49.8219 57.7952 48.4863 58.6516 47.2316C59.5081 45.9904 60.4931 44.9786 61.6065 44.2231C62.0633 43.9398 62.5343 43.697 63.0054 43.5216C63.4764 43.3462 63.9903 43.3597 64.5328 43.5755C64.7611 43.6835 65.0038 43.7644 65.2465 43.8184C65.4891 43.8723 65.7175 43.9398 65.9031 44.0073C66.0887 44.0747 66.3028 44.1826 66.5312 44.331C66.7596 44.4794 66.8738 44.6683 66.8738 44.9246C66.8738 45.9365 66.9023 46.7594 66.9594 47.3935C67.0165 48.0276 67.1022 48.5672 67.2164 49.0259C67.3306 49.4846 67.4448 49.8758 67.559 50.2131C67.6732 50.5639 67.7873 50.9281 67.9015 51.3194C67.9729 51.6836 67.9586 51.9939 67.8444 52.2367C67.7303 52.4931 67.4448 52.5201 66.988 52.3447C66.1458 52.0614 65.5177 51.4813 65.118 50.6043C64.7183 49.7274 64.4186 48.945 64.233 48.2164C64.1902 48.068 64.1045 47.8252 63.9475 47.4609C63.7905 47.0967 63.7048 46.8404 63.662 46.7055C63.3622 46.638 62.9911 46.7324 62.5771 47.0022C62.1632 47.2721 61.7778 47.6498 61.4637 48.1085C61.1354 48.5807 60.9213 49.1203 60.8356 49.7409C60.7357 50.3615 60.8642 50.9686 61.2068 51.5892C61.3638 51.805 61.5779 52.0749 61.8634 52.3717C62.1489 52.682 62.4344 52.9922 62.7199 53.316C63.0054 53.6398 63.2909 53.9636 63.5764 54.2604C63.8619 54.5572 64.1045 54.8135 64.2901 54.9889C64.5185 55.2048 64.6755 55.3262 64.7469 55.3397C64.8182 55.3532 65.0181 55.3127 65.3179 55.2048C65.7033 55.0294 66.2885 54.7865 67.0736 54.5032C67.8587 54.2199 68.6866 53.9231 69.5431 53.6398C70.3996 53.3565 71.2275 53.1137 72.0126 52.9113C72.7977 52.7089 73.3972 52.6145 73.8255 52.6145C74.0967 52.6145 74.2823 52.7089 74.3965 52.8843C74.5107 52.9922 74.4964 53.1406 74.3394 53.316C74.1823 53.4914 73.9825 53.6803 73.7398 53.8557C73.4972 54.031 73.2259 54.1929 72.969 54.3413C72.6978 54.4897 72.5265 54.5707 72.4551 54.6112C71.7985 54.9754 70.9848 55.3801 69.9856 55.8388C68.9864 56.284 68.1299 56.7292 67.4019 57.161C67.3306 57.2284 67.1878 57.3094 66.9737 57.3768C66.7596 57.4443 66.6026 57.5252 66.4884 57.5927C66.9452 58.564 67.2735 59.4139 67.459 60.1155C67.6446 60.817 67.716 61.4916 67.6589 62.1526C67.6018 62.8002 67.459 63.4612 67.2306 64.1358C67.0023 64.8103 66.6882 65.5793 66.3171 66.4427C65.7746 67.2792 65.2322 68.0752 64.6755 68.8306C64.1188 69.5861 63.505 70.2742 62.8055 70.8948C62.1204 71.5154 61.3638 72.001 60.5644 72.3518C59.7651 72.716 58.88 72.8914 57.9236 72.8914C57.3812 72.8914 56.8673 72.824 56.3677 72.7026C55.8681 72.5811 55.4541 72.3113 55.1116 71.9201C54.2265 71.0162 53.7412 70.0313 53.627 68.9656C53.5128 67.8998 53.6127 66.8475 53.9125 65.7952C54.1409 65.1476 54.4264 64.554 54.769 64.0009C55.6112 62.6248 56.539 61.4646 57.5525 60.5067C58.5803 59.5623 59.6366 58.645 60.75 57.7815ZM62.7056 60.2234C62.2774 60.6281 61.7064 61.1948 60.9784 61.9368C60.2504 62.6788 59.5795 63.4882 58.9371 64.3516C58.3091 65.2151 57.7952 66.0785 57.3955 66.9284C56.9958 67.7784 56.8959 68.5069 57.0814 69.1274C57.8523 68.8037 58.6374 68.264 59.4367 67.522C60.2361 66.78 60.9498 65.9706 61.5637 65.0802C62.1775 64.1898 62.6057 63.3128 62.8484 62.4494C63.091 61.5725 63.0482 60.8305 62.7056 60.2234Z" fill="#222222" stroke="white" stroke-miterlimit="10"/>
</g>
<g id="Group_4">
<path id="Vector_25" d="M51.4436 79.7449C33.5862 79.7449 19.0547 66.0111 19.0547 49.1339C19.0547 32.2566 33.5862 18.5228 51.4436 18.5228C69.3011 18.5228 83.8325 32.2566 83.8325 49.1339C83.8325 66.0111 69.3011 79.7449 51.4436 79.7449ZM51.4436 19.8719C34.3713 19.8719 20.4821 32.9986 20.4821 49.1339C20.4821 65.2691 34.3713 78.3958 51.4436 78.3958C68.516 78.3958 82.4051 65.2691 82.4051 49.1339C82.4051 32.9986 68.516 19.8719 51.4436 19.8719Z" fill="#222222"/>
</g>
</g>
</svg>
