<svg width="118" height="45" viewBox="0 0 118 45" fill="none" xmlns="http://www.w3.org/2000/svg">
<g id="05">
<g id="Group">
<path id="Vector" d="M0.683594 27.8478V0.245239H17.8844V27.8343H0.683594V27.8478ZM15.8004 21.4261L16.2429 18.3771L14.6441 18.2287L14.1588 20.5761C13.1595 21.0483 11.9319 21.2777 10.4617 21.2777C8.46322 21.2777 6.87874 20.6841 5.7225 19.4834C4.55199 18.2827 3.98101 16.7042 3.98101 14.7345C3.98101 12.8188 4.55199 11.2404 5.67968 9.99922C6.80737 8.75805 8.29196 8.13746 10.1334 8.13746C11.0755 8.13746 11.8748 8.24539 12.5172 8.44775C13.1596 8.65012 13.7448 8.91994 14.3015 9.2707L14.7726 11.5911L16.3999 11.4427L15.9288 8.39379C15.2437 7.84066 14.43 7.39546 13.4879 7.04469C12.5457 6.70742 11.3752 6.53203 9.99062 6.53203C8.34905 6.53203 6.93587 6.90978 5.75108 7.67877C4.56629 8.44775 3.63845 9.45957 2.98182 10.7142C2.32519 11.9824 1.99687 13.345 1.99687 14.802C1.99687 17.109 2.75342 19.0382 4.26652 20.5761C5.77962 22.1141 7.74949 22.8831 10.1904 22.8831C12.5886 22.8831 14.4586 22.3974 15.8004 21.4261Z" fill="#222222"/>
<path id="Vector_2" d="M23.7227 27.8478V0.245239H31.1169V27.8343H23.7227V27.8478ZM24.5077 22.6403H30.346V21.2507H28.3333V5.844H24.4792V7.23356H26.5205V21.2507H24.5077V22.6403Z" fill="#222222"/>
<path id="Vector_3" d="M36.9551 27.8478V0.245239H49.9449V27.8343H36.9551V27.8478ZM39.3104 12.603L38.8964 15.1123L40.3952 15.2877L40.8378 13.4124C41.4801 13.1156 42.2081 12.9672 43.0646 12.9672C44.0923 12.9672 44.7918 13.2101 45.1487 13.6957C45.5056 14.1814 45.6768 14.8155 45.6768 15.598V16.5693C45.3628 16.5423 45.0345 16.5154 44.6776 16.5019C44.3207 16.4884 43.9782 16.4749 43.6356 16.4749C42.3509 16.4749 41.1232 16.6907 39.9813 17.1224C38.8393 17.5542 38.2684 18.4581 38.2684 19.8206C38.2684 20.9809 38.6538 21.7768 39.4389 22.2085C40.224 22.6537 40.9948 22.8696 41.7513 22.8696C42.6792 22.8696 43.4785 22.6403 44.1352 22.1816C44.7918 21.7229 45.3057 21.2102 45.6768 20.6166V20.6706C45.7054 22.1411 46.4048 22.8696 47.7752 22.8696C48.3034 22.8696 48.8029 22.7482 49.274 22.5053L49.2455 21.3856C49.0171 21.48 48.7601 21.534 48.4746 21.534C47.818 21.534 47.4897 21.1428 47.4897 20.3603V15.1932C47.4897 12.7649 46.1193 11.5507 43.3786 11.5507C42.6221 11.5507 41.9083 11.6316 41.2374 11.7935C40.5523 11.9689 39.9099 12.2387 39.3104 12.603ZM45.6626 18.566C45.5912 19.4564 45.2058 20.1714 44.5063 20.6841C43.8069 21.2102 43.0646 21.4665 42.2652 21.4665C41.7656 21.4665 41.2803 21.3316 40.8235 21.0753C40.3524 20.819 40.124 20.3333 40.124 19.6318C40.124 18.7818 40.4809 18.2422 41.1661 17.9859C41.8655 17.7295 42.6363 17.6081 43.5071 17.6081C43.8925 17.6081 44.2636 17.6216 44.6205 17.6621C44.9774 17.6891 45.3342 17.7161 45.6483 17.7295V18.566H45.6626Z" fill="#222222"/>
<path id="Vector_4" d="M55.7979 27.8478V0.245239H67.6029V27.8343H55.7979V27.8478ZM66.361 19.4969C66.361 18.6334 66.1183 17.9994 65.633 17.5811C65.1476 17.1629 64.5624 16.8796 63.8487 16.7177C63.1349 16.5558 62.4355 16.4209 61.7361 16.313C61.0366 16.2051 60.4371 16.0297 59.9517 15.8003C59.4664 15.571 59.2237 15.1663 59.2237 14.5861C59.2237 14.033 59.4521 13.6283 59.9232 13.3585C60.3942 13.0886 60.9795 12.9672 61.7075 12.9672C62.5497 12.9672 63.3348 13.1426 64.0628 13.5069L64.3483 15.2607L65.8471 15.0853L65.5616 12.549C65.0763 12.2657 64.4911 12.0364 63.7916 11.8475C63.0921 11.6586 62.3499 11.5507 61.5505 11.5507C60.4942 11.5507 59.5235 11.7935 58.6242 12.2657C57.7249 12.7379 57.2824 13.5473 57.2824 14.7076C57.2824 15.5575 57.5251 16.1781 58.0104 16.5693C58.4957 16.974 59.0953 17.2439 59.8233 17.4058C60.5513 17.5676 61.265 17.7026 61.9787 17.824C62.6924 17.9319 63.292 18.1208 63.7773 18.3636C64.2626 18.6065 64.5053 19.0247 64.5053 19.6318C64.5053 20.2524 64.1912 20.711 63.5632 21.0078C62.9351 21.3047 62.2214 21.453 61.4077 21.453C60.4942 21.453 59.6377 21.2777 58.8526 20.9134L58.924 19.4699L57.4822 19.3215L57.1254 21.7903C57.625 22.1006 58.2816 22.3569 59.081 22.5593C59.8804 22.7617 60.6797 22.8696 61.4934 22.8696C62.878 22.8696 64.0343 22.5728 64.9621 21.9657C65.89 21.3856 66.361 20.5492 66.361 19.4969Z" fill="#222222"/>
<path id="Vector_5" d="M73.4414 27.8478V0.245239H85.2464V27.8343H73.4414V27.8478ZM84.0045 19.4969C84.0045 18.6334 83.7618 17.9994 83.2765 17.5811C82.7912 17.1629 82.2059 16.8796 81.4922 16.7177C80.7785 16.5558 80.079 16.4209 79.3796 16.313C78.6801 16.2051 78.0806 16.0297 77.5953 15.8003C77.1099 15.571 76.8672 15.1663 76.8672 14.5861C76.8672 14.033 77.0956 13.6283 77.5667 13.3585C78.0377 13.0886 78.623 12.9672 79.351 12.9672C80.1932 12.9672 80.9783 13.1426 81.7063 13.5069L81.9918 15.2607L83.4906 15.0853L83.2051 12.549C82.7198 12.2657 82.1346 12.0364 81.4351 11.8475C80.7357 11.6586 79.9934 11.5507 79.194 11.5507C78.1377 11.5507 77.167 11.7935 76.2677 12.2657C75.3684 12.7379 74.9259 13.5473 74.9259 14.7076C74.9259 15.5575 75.1686 16.1781 75.6539 16.5693C76.1393 16.974 76.7388 17.2439 77.4668 17.4058C78.1948 17.5676 78.9085 17.7026 79.6222 17.824C80.3359 17.9319 80.9355 18.1208 81.4208 18.3636C81.9062 18.6065 82.1488 19.0247 82.1488 19.6318C82.1488 20.2524 81.8348 20.711 81.2068 21.0078C80.5787 21.3047 79.8649 21.453 79.0513 21.453C78.1377 21.453 77.2812 21.2777 76.4961 20.9134L76.5675 19.4699L75.1258 19.3215L74.7689 21.7903C75.2685 22.1006 75.9252 22.3569 76.7245 22.5593C77.5239 22.7617 78.3233 22.8696 79.1369 22.8696C80.5216 22.8696 81.6778 22.5728 82.6056 21.9657C83.5335 21.3856 84.0045 20.5492 84.0045 19.4969Z" fill="#222222"/>
<path id="Vector_6" d="M91.084 27.8478V0.245239H98.8636V27.8343H91.084V27.8478ZM92.2259 22.6403H98.0643V21.2507H96.0515V11.78H92.1832V13.1696H94.2529V21.2507H92.2402V22.6403H92.2259ZM94.0531 6.74789V8.9739H96.023V6.74789H94.0531Z" fill="#222222"/>
<path id="Vector_7" d="M104.702 27.8478V0.245239H117.135V27.8343H104.702V27.8478ZM116.022 18.9842L114.466 18.6604C114.123 20.4952 113.081 21.4126 111.368 21.4126C110.226 21.4126 109.356 21.0483 108.756 20.3198C108.157 19.5913 107.857 18.566 107.857 17.2708C107.857 16.0971 108.128 15.0988 108.656 14.2624C109.184 13.4259 110.069 13.0212 111.297 13.0212C112.239 13.0212 113.067 13.2236 113.752 13.6283L114.195 15.4631L115.694 15.2877L115.251 12.6704C114.666 12.2522 114.052 11.9554 113.41 11.7935C112.767 11.6316 112.068 11.5507 111.311 11.5507C109.527 11.5507 108.171 12.1443 107.286 13.3315C106.387 14.5187 105.944 15.8678 105.944 17.3653C105.944 19.1056 106.415 20.4682 107.371 21.4261C108.314 22.3974 109.584 22.8831 111.169 22.8831C112.753 22.8831 113.924 22.4649 114.666 21.6419C115.408 20.8055 115.865 19.9286 116.022 18.9842Z" fill="#222222"/>
</g>
<g id="Group_2">
<path id="Vector_8" d="M8.12067 42.9171C7.79236 43.4838 7.30701 43.929 6.67893 44.2393C6.03658 44.5496 5.28002 44.7114 4.395 44.7114H1.83984V37.1025H4.395C5.28002 37.1025 6.05085 37.2509 6.67893 37.5612C7.30701 37.8715 7.79236 38.3032 8.12067 38.8833C8.44899 39.4635 8.606 40.1245 8.606 40.907C8.606 41.676 8.44899 42.3505 8.12067 42.9171ZM6.70747 43.0655C7.26417 42.5529 7.53541 41.8379 7.53541 40.907C7.53541 39.9761 7.26417 39.2611 6.70747 38.7484C6.15076 38.2358 5.35138 37.9794 4.29507 37.9794H2.85337V43.8345H4.29507C5.35138 43.8345 6.15076 43.5782 6.70747 43.0655Z" fill="#222222"/>
<path id="Vector_9" d="M13.9014 37.8985V40.5023H16.9562V41.2578H13.9014V43.9155H17.2988V44.7114H12.8594V37.1025H17.2988V37.8985H13.9014Z" fill="#222222"/>
<path id="Vector_10" d="M26.321 43.7402C26.1354 44.0505 25.8642 44.3069 25.493 44.4957C25.1219 44.6846 24.6651 44.7925 24.1084 44.7925C23.5803 44.7925 23.0949 44.6981 22.681 44.5227C22.267 44.3338 21.9387 44.091 21.6818 43.7672C21.4391 43.4434 21.2963 43.0792 21.2535 42.6744H22.3669C22.3955 42.8903 22.4668 43.1062 22.5953 43.3085C22.7238 43.5109 22.9236 43.6863 23.1663 43.8212C23.409 43.9561 23.7087 44.0235 24.0656 44.0235C24.5224 44.0235 24.8793 43.9156 25.1219 43.6728C25.3646 43.4299 25.493 43.1466 25.493 42.7824C25.493 42.4721 25.4074 42.2158 25.2361 42.0269C25.0648 41.838 24.8507 41.6761 24.608 41.5682C24.3654 41.4603 24.0085 41.3388 23.5803 41.2039C23.0664 41.042 22.6667 40.8936 22.3527 40.7587C22.0386 40.6238 21.7817 40.408 21.5675 40.1247C21.3534 39.8413 21.2393 39.4771 21.2393 39.0184C21.2393 38.6272 21.3392 38.2764 21.539 37.9661C21.7389 37.6693 22.0243 37.4265 22.4097 37.2646C22.7809 37.1027 23.2377 37.0217 23.7373 37.0217C24.5224 37.0217 25.1647 37.1971 25.6215 37.5614C26.0926 37.9256 26.3495 38.3843 26.4352 38.9509H25.3218C25.2647 38.6541 25.0934 38.3843 24.8364 38.155C24.5652 37.9256 24.2083 37.8042 23.7515 37.8042C23.3376 37.8042 22.995 37.9121 22.7524 38.1145C22.4954 38.3169 22.3812 38.6137 22.3812 38.9779C22.3812 39.2747 22.4669 39.5176 22.6239 39.6929C22.7952 39.8818 22.995 40.0167 23.2377 40.1247C23.4804 40.2326 23.8229 40.3405 24.2369 40.4754C24.7508 40.6373 25.1647 40.7857 25.493 40.9341C25.8071 41.0825 26.0783 41.2984 26.2924 41.5817C26.5065 41.865 26.6207 42.2562 26.6207 42.7419C26.5922 43.0927 26.5066 43.4299 26.321 43.7402Z" fill="#222222"/>
<path id="Vector_11" d="M31.8878 37.1025V44.7114H30.8457V37.1025H31.8878Z" fill="#222222"/>
<path id="Vector_12" d="M42.4223 37.6828C43.0646 38.128 43.4929 38.7216 43.707 39.4771H42.6079C42.4223 39.0184 42.094 38.6406 41.6514 38.3708C41.2089 38.0875 40.6808 37.9526 40.067 37.9526C39.5246 37.9526 39.0249 38.074 38.5967 38.3169C38.1684 38.5597 37.8259 38.897 37.569 39.3422C37.3263 39.7874 37.1978 40.3135 37.1978 40.9206C37.1978 41.5412 37.3263 42.0808 37.569 42.526C37.8116 42.9712 38.1685 43.322 38.611 43.5648C39.0535 43.8077 39.5674 43.9291 40.1526 43.9291C40.6522 43.9291 41.0947 43.8212 41.5087 43.6323C41.9227 43.4299 42.251 43.1331 42.5222 42.7554C42.7934 42.3776 42.9362 41.9189 42.9933 41.4063H39.8243V40.6778H43.864V41.5817C43.7926 42.1888 43.5928 42.7284 43.2645 43.2276C42.9362 43.7267 42.4937 44.1045 41.937 44.3878C41.3802 44.6711 40.7521 44.8195 40.0384 44.8195C39.2676 44.8195 38.5824 44.6576 37.9829 44.3338C37.3834 44.01 36.9266 43.5514 36.5983 42.9577C36.2699 42.3776 36.0986 41.7031 36.0986 40.9476C36.0986 40.1921 36.2699 39.5176 36.5983 38.9374C36.9266 38.3573 37.3976 37.8851 37.9829 37.5614C38.5681 37.2376 39.2533 37.0622 40.0241 37.0622C40.9948 37.0352 41.7799 37.2511 42.4223 37.6828Z" fill="#222222"/>
<path id="Vector_13" d="M54.3983 44.7114H53.3563L49.1738 38.6945V44.7114H48.1318V37.1025H49.1738L53.3563 43.1195V37.1025H54.3983V44.7114Z" fill="#222222"/>
<path id="Vector_14" d="M69.4157 43.7402C69.2301 44.0505 68.9589 44.3069 68.5878 44.4957C68.2166 44.6846 67.7599 44.7925 67.2032 44.7925C66.675 44.7925 66.1897 44.6981 65.7757 44.5227C65.3618 44.3338 65.0334 44.091 64.7765 43.7672C64.5338 43.4434 64.3911 43.0792 64.3483 42.6744H65.4616C65.4902 42.8903 65.5616 43.1062 65.6901 43.3085C65.8186 43.5109 66.0183 43.6863 66.261 43.8212C66.5037 43.9561 66.8035 44.0235 67.1603 44.0235C67.6171 44.0235 67.9739 43.9156 68.2166 43.6728C68.4593 43.4299 68.5878 43.1466 68.5878 42.7824C68.5878 42.4721 68.5021 42.2158 68.3308 42.0269C68.1595 41.838 67.9454 41.6761 67.7028 41.5682C67.4601 41.4603 67.1033 41.3388 66.675 41.2039C66.1611 41.042 65.7614 40.8936 65.4474 40.7587C65.1333 40.6238 64.8764 40.408 64.6623 40.1247C64.4482 39.8413 64.334 39.4771 64.334 39.0184C64.334 38.6272 64.4339 38.2764 64.6337 37.9661C64.8335 37.6693 65.1191 37.4265 65.5045 37.2646C65.8756 37.1027 66.3324 37.0217 66.832 37.0217C67.6171 37.0217 68.2595 37.1971 68.7163 37.5614C69.1873 37.9256 69.4443 38.3843 69.5299 38.9509H68.4165C68.3594 38.6541 68.188 38.3843 67.9311 38.155C67.6599 37.9256 67.3031 37.8042 66.8463 37.8042C66.4324 37.8042 66.0897 37.9121 65.8471 38.1145C65.5901 38.3169 65.4759 38.6137 65.4759 38.9779C65.4759 39.2747 65.5616 39.5176 65.7186 39.6929C65.8899 39.8818 66.0897 40.0167 66.3324 40.1247C66.575 40.2326 66.9176 40.3405 67.3316 40.4754C67.8455 40.6373 68.2595 40.7857 68.5878 40.9341C68.9018 41.0825 69.173 41.2984 69.3871 41.5817C69.6013 41.865 69.7154 42.2562 69.7154 42.7419C69.6869 43.0927 69.6013 43.4299 69.4157 43.7402Z" fill="#222222"/>
<path id="Vector_15" d="M78.8799 37.1025V37.8985H76.6102V44.7114H75.5539V37.8985H73.2842V37.1025H78.8799Z" fill="#222222"/>
<path id="Vector_16" d="M83.7332 37.1025V41.6625C83.7332 42.4045 83.9045 42.9576 84.2613 43.3219C84.6182 43.6726 85.0893 43.8615 85.7173 43.8615C86.3311 43.8615 86.8022 43.6861 87.1448 43.3219C87.4874 42.9576 87.6587 42.418 87.6587 41.676V37.116H88.7008V41.676C88.7008 42.7148 88.4295 43.4973 87.8871 44.0099C87.3447 44.5361 86.6166 44.7924 85.7031 44.7924C84.8038 44.7924 84.0758 44.5361 83.5334 44.0099C82.991 43.4838 82.7197 42.7148 82.7197 41.676V37.116H83.7332V37.1025Z" fill="#222222"/>
<path id="Vector_17" d="M99.4487 42.9171C99.1204 43.4838 98.635 43.929 98.007 44.2393C97.3646 44.5496 96.6081 44.7114 95.7231 44.7114H93.168V37.1025H95.7231C96.6081 37.1025 97.3789 37.2509 98.007 37.5612C98.635 37.8715 99.1204 38.3032 99.4487 38.8833C99.777 39.4635 99.9341 40.1245 99.9341 40.907C99.9341 41.676 99.777 42.3505 99.4487 42.9171ZM98.0498 43.0655C98.6065 42.5529 98.8778 41.8379 98.8778 40.907C98.8778 39.9761 98.6065 39.2611 98.0498 38.7484C97.4931 38.2358 96.6938 37.9794 95.6374 37.9794H94.1957V43.8345H95.6374C96.6795 43.8345 97.4931 43.5782 98.0498 43.0655Z" fill="#222222"/>
<path id="Vector_18" d="M105.244 37.1025V44.7114H104.202V37.1025H105.244Z" fill="#222222"/>
<path id="Vector_19" d="M115.465 37.5073C116.065 37.8446 116.536 38.3033 116.879 38.8969C117.221 39.4905 117.392 40.1651 117.392 40.9071C117.392 41.6491 117.221 42.3236 116.879 42.9172C116.536 43.5108 116.065 43.9695 115.465 44.3068C114.866 44.6441 114.195 44.806 113.453 44.806C112.71 44.806 112.025 44.6441 111.426 44.3068C110.826 43.9695 110.341 43.5108 109.998 42.9172C109.656 42.3236 109.484 41.6491 109.484 40.9071C109.484 40.1651 109.656 39.4905 109.998 38.8969C110.341 38.3033 110.812 37.8446 111.426 37.5073C112.039 37.1701 112.71 37.0082 113.453 37.0082C114.195 37.0082 114.866 37.1701 115.465 37.5073ZM111.954 38.2898C111.511 38.5327 111.169 38.8699 110.926 39.3286C110.683 39.7738 110.555 40.3 110.555 40.9071C110.555 41.5007 110.683 42.0268 110.926 42.4855C111.169 42.9442 111.511 43.2815 111.954 43.5243C112.396 43.7672 112.882 43.8886 113.438 43.8886C113.981 43.8886 114.48 43.7672 114.923 43.5243C115.365 43.2815 115.708 42.9307 115.951 42.4855C116.193 42.0403 116.322 41.5142 116.322 40.9206C116.322 40.3135 116.193 39.7873 115.951 39.3421C115.708 38.8969 115.365 38.5461 114.923 38.3033C114.48 38.0605 113.995 37.9391 113.438 37.9391C112.896 37.9256 112.396 38.047 111.954 38.2898Z" fill="#222222"/>
</g>
</g>
</svg>
