<svg width="146" height="42" viewBox="0 0 146 42" fill="none" xmlns="http://www.w3.org/2000/svg">
<g id="04">
<g id="Group">
<path id="Vector" d="M21.2234 8.5346L22.294 8.31875C22.5652 8.31875 22.7936 8.37271 22.9507 8.48064C23.1077 8.58857 23.1933 8.6965 23.1933 8.79093C23.1933 8.88537 23.1648 9.03377 23.122 9.20915C23.0791 9.38453 22.6794 11.1923 21.9372 14.6055C21.1949 18.0188 20.6525 20.5686 20.3099 22.2414C21.9657 20.1099 23.9071 17.4926 26.1196 14.3762C28.3322 11.2598 29.6312 9.19566 30.0023 8.17035C30.1165 7.84656 30.2735 7.60373 30.4591 7.42834C30.6446 7.25296 30.8159 7.14503 30.9587 7.11805C31.1014 7.09107 31.3298 7.06409 31.6296 7.06409C31.9294 7.06409 32.2862 7.13154 32.7002 7.25296C33.1141 7.37438 33.3283 7.57674 33.3283 7.87355C33.3283 8.41318 32.4718 9.99163 30.7731 12.5819C29.0744 15.1722 27.1188 17.9243 24.9206 20.8384C22.7223 23.7524 20.8951 26.0594 19.4249 27.7592C19.1679 28.056 18.8396 28.2179 18.4685 28.2179C18.0973 28.2179 17.6976 28.1505 17.2837 28.0291C16.8697 27.9076 16.6556 27.6918 16.6556 27.368C16.6556 26.3562 17.5977 21.4724 19.4819 12.7438C17.8689 14.7135 15.9133 17.4656 13.6151 20.9868C11.217 24.6293 9.86092 26.8958 9.54688 27.7592C9.37558 28.2854 9.17574 28.5957 8.94735 28.6766C8.79033 28.7441 8.61903 28.7711 8.44773 28.7711L7.2915 28.8925C7.06311 28.8925 6.86326 28.8385 6.66342 28.7171C6.47785 28.5957 6.37793 28.4743 6.37793 28.3394C6.37793 27.9751 6.92037 26.8688 7.99096 25.0341C9.06155 23.1993 10.332 21.2026 11.7737 19.0441C13.2154 16.8855 14.7143 14.7944 16.2845 12.7573C17.8547 10.7201 19.068 9.34406 19.9245 8.65602C20.0958 8.50762 20.2956 8.44017 20.524 8.44017L21.2234 8.5346Z" fill="#222222"/>
<path id="Vector_2" d="M38.381 17.6817C39.1233 17.6817 39.4944 17.9245 39.4944 18.3967C39.4944 18.653 39.4373 18.8419 39.3088 18.9633C39.1804 19.0847 38.9092 19.476 38.4952 20.164C38.0813 20.8385 37.6245 21.702 37.1248 22.7677C36.6252 23.82 36.2969 24.7239 36.1542 25.4659C36.1256 25.5604 36.1114 25.6818 36.1114 25.8572C36.1114 26.3698 36.2541 26.6127 36.5539 26.6127C36.8536 26.6127 37.1962 26.4778 37.5959 26.2214C37.9956 25.9516 38.3525 25.6818 38.6665 25.3715C38.9805 25.0747 39.2803 24.7644 39.5801 24.4541C39.8798 24.1438 40.0511 23.955 40.1082 23.9145C40.1653 23.874 40.251 23.847 40.3652 23.847C40.5507 23.847 40.6649 23.9819 40.7078 24.2518C40.7506 24.5216 40.7649 24.7914 40.7649 25.0882C40.7649 25.385 40.7363 25.5739 40.6792 25.6818C40.3937 26.2079 39.7799 26.842 38.8093 27.584C37.8529 28.326 36.9678 28.6903 36.1827 28.6903C35.3976 28.6903 34.8124 28.4609 34.4555 28.0157C34.0987 27.5705 33.8988 27.0579 33.8988 26.5182C33.8988 25.9651 33.9987 25.4929 34.1986 25.0747C33.3849 26.073 32.4571 26.9095 31.415 27.611C30.3587 28.299 29.5165 28.6498 28.8456 28.6498C28.1747 28.6498 27.6466 28.4609 27.2183 28.0832C26.6759 27.611 26.4189 26.9634 26.4189 26.127C26.4189 25.2906 26.6188 24.4541 27.0185 23.6042C27.4182 22.7678 27.9321 21.9853 28.5744 21.2972C29.2168 20.5957 29.9305 19.9616 30.7013 19.395C32.3143 18.1943 33.8132 17.6007 35.1835 17.6007C35.7117 17.6007 36.1399 17.6817 36.4682 17.8435C36.7965 18.0054 37.0107 18.2213 37.0963 18.4641C37.3247 18.1269 37.5245 17.9245 37.6958 17.8301C37.8243 17.7221 38.067 17.6817 38.381 17.6817ZM36.4397 19.2196C34.7696 19.2196 33.0423 20.0965 31.258 21.8504C30.6299 22.4844 30.0447 23.2264 29.5023 24.1034C28.9598 24.9803 28.7029 25.5739 28.7029 25.8977C28.7029 26.2214 28.8028 26.3833 29.0027 26.3833C29.2739 26.3833 30.0304 25.8707 31.2866 24.8589C32.5427 23.847 33.3707 23.0915 33.7703 22.6059C34.2271 22.0662 35.1121 20.933 36.4397 19.2196Z" fill="#222222"/>
<path id="Vector_3" d="M49.4874 10.3693L50.0869 10.5042C50.1726 10.5042 50.2582 10.5446 50.3153 10.6256C50.3867 10.7065 50.4152 10.7875 50.4152 10.8549C50.4152 10.9224 50.3153 11.1248 50.1012 11.4485C49.8871 11.7723 49.6587 12.1366 49.3732 12.5413C49.0877 12.946 48.945 13.1754 48.9307 13.2159C49.6872 13.1619 50.2297 13.1349 50.5437 13.1349C50.8577 13.1349 51.0719 13.1619 51.2003 13.2024C51.3145 13.2428 51.4573 13.3643 51.6 13.5531C51.757 13.742 51.8855 13.8904 52.014 13.9848C52.1425 14.0793 52.1996 14.2277 52.1996 14.4166C52.1996 14.6054 52.0711 14.7808 51.8284 14.9022C51.5857 15.0371 51.3145 15.1181 51.029 15.1451C48.7594 15.3609 47.5175 15.4689 47.2891 15.4823C46.504 16.6291 45.3906 18.4099 43.9774 20.8248C42.5642 23.2397 41.8077 24.7641 41.722 25.3712C41.6792 25.6545 41.6649 25.8704 41.6649 26.0458C41.6649 26.41 41.8648 26.5854 42.2645 26.5854C42.6642 26.5854 43.1067 26.437 43.592 26.1537C44.0773 25.8569 44.5341 25.5466 44.9338 25.2093C46.0329 24.2919 46.6182 23.8198 46.6896 23.8198C46.9465 23.8198 47.075 24.238 47.075 25.0609C47.075 25.5061 46.8609 25.9109 46.4184 26.2751C45.4334 27.0711 44.6055 27.6782 43.9346 28.0829C43.2637 28.4876 42.5928 28.69 41.9076 28.69C41.7649 28.69 41.6221 28.6765 41.4937 28.6495C40.7086 28.5146 40.1376 28.2448 39.7807 27.8401C39.4096 27.4353 39.2383 26.8957 39.2383 26.2212C39.2383 25.5466 39.4524 24.7102 39.8806 23.7388C40.3089 22.7675 40.837 21.7287 41.4794 20.6359C42.5357 18.8416 43.592 17.1687 44.6341 15.6038L44.0773 15.6712C42.9497 15.7926 42.293 15.8466 42.1075 15.8466H41.979C41.6935 15.8466 41.4223 15.7926 41.1653 15.6847C40.9084 15.5768 40.7656 15.4419 40.7656 15.2935C40.7656 15.1316 40.837 14.9832 40.9798 14.8348C41.1225 14.6864 41.2082 14.565 41.2367 14.484C41.3081 14.2816 41.565 14.0523 42.0075 13.8095C42.45 13.5666 42.7784 13.4317 43.0068 13.4182C43.2352 13.4047 43.4493 13.3912 43.6634 13.3777C43.8775 13.3643 44.1059 13.3643 44.3628 13.3508C44.6198 13.3373 44.8196 13.3373 44.9624 13.3238L46.2756 13.2698C47.0893 12.1096 47.6603 11.3541 47.96 11.0303C48.2741 10.693 48.4454 10.5177 48.4882 10.4907C48.531 10.4637 48.6309 10.4367 48.7879 10.4367L49.4874 10.3693Z" fill="#222222"/>
<path id="Vector_4" d="M58.2658 23.847C58.4514 23.847 58.5655 23.9819 58.6084 24.2517C58.6512 24.5215 58.6655 24.7914 58.6655 25.0882C58.6655 25.385 58.6369 25.5738 58.5798 25.6818C58.2943 26.1944 57.6805 26.8285 56.7241 27.5705C55.7677 28.3125 54.8542 28.6902 53.9977 28.6902C53.4695 28.6902 52.9842 28.5419 52.5274 28.245C52.0849 27.9482 51.8565 27.4221 51.8565 26.6801C51.8565 25.9381 52.0706 25.1961 52.4846 24.4811C50.0579 27.3546 48.1737 28.7847 46.7891 28.7847C46.2466 28.7847 45.8041 28.5958 45.4615 28.2316C45.1189 27.8673 44.9619 27.4896 44.9619 27.0848C44.9619 26.6936 45.019 26.2889 45.1332 25.8706C45.2474 25.4524 45.3759 25.0747 45.5044 24.7374C45.6328 24.4001 45.8327 23.9954 46.0896 23.5097C46.3465 23.024 46.5464 22.6733 46.6606 22.4439C46.7748 22.2146 46.9889 21.8908 47.2744 21.4456C47.5599 21.0004 47.9167 20.3933 48.3735 19.6378C48.8303 18.8823 49.2014 18.3157 49.5012 17.9514C49.801 17.5872 50.0865 17.3983 50.372 17.3983C50.6574 17.3983 50.9001 17.5062 51.1142 17.7221C51.3284 17.9379 51.4425 18.1268 51.4425 18.2617C51.4425 18.3966 51.1142 19.0172 50.4576 20.1235C48.5306 23.4288 47.5599 25.3445 47.5599 25.8976C47.5599 26.0325 47.617 26.1 47.7169 26.1C48.1879 26.1 49.3585 25.1421 51.2142 23.2264C53.0699 21.3107 54.1547 20.083 54.4545 19.5434C54.7542 19.0037 55.0255 18.545 55.311 18.1808C55.5822 17.8165 55.7963 17.5872 55.939 17.5062C56.353 17.2499 56.8954 17.115 57.5663 17.088C57.6805 17.088 57.7519 17.088 57.809 17.1015C57.8661 17.115 57.9375 17.1959 58.0088 17.3309C58.0802 17.4658 58.123 17.5872 58.123 17.6816C58.0374 17.9379 57.652 18.626 56.9525 19.7457C56.2673 20.8655 55.8819 21.4996 55.8106 21.6345C54.6543 23.8875 54.0833 25.358 54.0833 26.0325C54.0833 26.4238 54.2404 26.6126 54.5544 26.6126C55.1254 26.5452 55.8106 26.1135 56.6099 25.331C56.9097 25.0477 57.1952 24.7509 57.4807 24.4541C57.7662 24.1573 57.9517 23.9819 58.0088 23.9414C58.0802 23.874 58.1659 23.847 58.2658 23.847Z" fill="#222222"/>
<path id="Vector_5" d="M62.5049 20.6497C64.8031 18.1808 66.773 16.9396 68.386 16.9396C68.7857 16.9396 69.1141 17.0476 69.371 17.2769C69.6279 17.5063 69.7564 17.7896 69.7564 18.1538C69.7564 18.5181 69.4852 19.1117 68.9428 19.9616C68.4003 20.7981 67.9007 21.5131 67.4439 22.0932C67.2013 22.39 66.93 22.5384 66.616 22.5384C66.3162 22.5384 66.0736 22.4305 65.9023 22.2146C65.731 21.9988 65.6453 21.7559 65.6453 21.4726C65.6453 20.8385 66.0022 20.11 66.7302 19.3141L66.7016 19.2871C66.3733 19.3141 65.5882 19.9211 64.3035 21.0814C63.0331 22.2551 61.9482 23.3074 61.0489 24.2248C60.1639 25.1556 59.1932 26.2754 58.1369 27.611C57.8372 28.0022 57.5802 28.2046 57.3661 28.2046C57.152 28.2046 56.8808 28.1371 56.5382 28.0157C56.1956 27.8943 55.9815 27.7999 55.9101 27.7459C55.8387 27.6919 55.7959 27.5975 55.7959 27.4626C55.7959 27.3412 55.8387 27.1793 55.9101 27.0174C55.9815 26.842 56.1385 26.5992 56.3383 26.2889C56.5382 25.9786 56.8665 25.4659 57.2947 24.7644C57.723 24.0629 58.3796 22.9971 59.2789 21.5805C60.1782 20.164 60.7063 19.3006 60.8919 19.0038C61.2631 18.3967 61.5628 17.9515 61.8055 17.6816C62.248 17.1555 62.9903 16.8992 64.0323 16.8992C64.2607 16.8992 64.3892 17.0341 64.3892 17.3174C64.3892 17.7491 63.9609 18.572 63.1187 19.7593L62.5049 20.6497Z" fill="#222222"/>
<path id="Vector_6" d="M78.2503 17.8434C78.2503 18.4505 77.9934 18.9901 77.4652 19.4488C76.9371 19.9075 76.3518 20.1369 75.6809 20.1369C75.4668 20.1369 75.324 20.0829 75.2527 19.9885C75.1813 19.894 75.1527 19.7591 75.1527 19.6107C75.1527 19.4623 75.167 19.3004 75.2098 19.152C74.853 19.26 74.4675 19.4353 74.0393 19.6647C73.6111 19.894 73.0829 20.2313 72.4548 20.69C71.8268 21.1487 71.5127 21.4725 71.5127 21.7018C71.5127 21.7693 71.6269 21.8097 71.8553 21.8097C72.0837 21.8097 72.4406 21.7288 72.9116 21.5804C73.3827 21.432 73.7253 21.3511 73.9108 21.3511C74.0964 21.3511 74.2249 21.3645 74.282 21.378C74.4104 21.4455 74.5389 21.5804 74.6959 21.7963C74.8387 22.0121 74.9101 22.1875 74.9101 22.3089C74.9101 22.4303 74.7816 22.5922 74.5247 22.7946C74.2677 22.997 73.9822 23.1454 73.6682 23.2533C73.3399 23.3612 73.1258 23.4422 73.0258 23.4961C70.9703 24.5889 69.9425 25.3309 69.9425 25.7356C69.9425 26.4506 70.5849 26.8149 71.8839 26.8149C72.7118 26.8149 73.554 26.5721 74.3819 26.0729C75.0956 25.6547 75.738 25.223 76.309 24.7778C76.88 24.3461 77.2368 24.0762 77.3938 23.9683C77.5509 23.8604 77.6651 23.8199 77.7364 23.8199C77.9934 23.8199 78.1218 24.0897 78.1218 24.6294C78.1218 25.169 78.0933 25.5198 78.0219 25.6817C77.9505 25.857 77.765 26.0594 77.4367 26.3157C75.3526 27.9212 73.3684 28.7306 71.5127 28.7306C70.5135 28.7306 69.7284 28.5957 69.1289 28.3394C68.0297 27.8672 67.4873 27.1522 67.4873 26.1808C67.4873 24.9127 68.4152 23.9413 70.2851 23.2938C69.914 23.1319 69.6713 22.943 69.5714 22.6867C69.4572 22.4438 69.4144 22.0526 69.4144 21.5129C69.4144 20.9733 69.6856 20.4067 70.2137 19.7996C70.7419 19.1925 71.3985 18.6933 72.1694 18.3156C73.8823 17.4387 75.4239 17.007 76.7658 17.007C77.0941 17.007 77.4081 17.0744 77.7507 17.2228C78.0933 17.3712 78.2503 17.5736 78.2503 17.8434Z" fill="#222222"/>
<path id="Vector_7" d="M111.567 8.45373H111.752C111.809 8.45373 111.852 8.45373 111.867 8.46722C111.881 8.48071 111.895 8.48071 111.924 8.4942C111.952 8.4942 111.966 8.50769 111.995 8.53467C112.038 8.57515 112.109 8.61562 112.195 8.65609C112.309 8.73704 112.366 8.83148 112.366 8.9394C112.366 9.04733 112.252 9.27668 112.024 9.62744C111.795 9.97821 111.21 10.8281 110.254 12.2042C108.07 15.3611 106.114 18.3021 104.387 21.0003C101.403 25.6952 99.8902 28.0561 99.8617 28.0831C99.8331 28.1101 99.8188 28.1371 99.8046 28.164C99.7903 28.218 99.7617 28.245 99.6904 28.245L99.4905 28.2045L99.0908 28.299L98.8624 28.2585L98.6198 28.299H98.5341L97.7205 28.4069C97.2352 28.4069 96.9925 28.245 96.9925 27.9347C96.9925 27.7998 97.0353 27.6379 97.121 27.449C97.4207 26.7745 98.9481 24.3326 101.689 20.0964C99.8902 20.1369 98.1059 20.1639 96.3501 20.1639L93.2097 20.1504C92.6959 20.9329 91.9821 22.0391 91.0828 23.4827C89.1415 26.6261 88.1137 28.2045 87.9853 28.2315C87.8568 28.2585 87.7569 28.2855 87.6712 28.2855C87.5856 28.2855 87.5142 28.245 87.4571 28.1506C87.3857 28.0696 87.3429 28.0156 87.3144 28.0156C87.2858 28.0156 87.243 28.0291 87.1573 28.0696C87.086 28.1101 86.9718 28.1236 86.8148 28.1236L86.4722 28.1101L86.3437 28.0291C86.3294 28.0291 86.3152 28.0426 86.3009 28.0696C86.2866 28.0966 86.2438 28.1101 86.1867 28.1101C85.7727 28.1101 85.5586 27.9482 85.5586 27.6109C85.5586 27.3951 85.6442 27.0983 85.8013 26.734C85.9726 26.3697 86.1867 25.9785 86.4579 25.5603C86.7291 25.1421 87.4143 24.1302 88.542 22.5518C89.6554 20.9734 90.2121 20.1774 90.2121 20.1639C90.0265 20.1504 89.8124 20.1504 89.5697 20.1369C89.0701 20.1369 88.7275 20.1234 88.5134 20.0829C87.9567 19.9885 87.5713 19.5568 87.3715 18.7878C87.2573 18.4101 87.2144 18.1672 87.2287 18.0458C87.2287 17.803 87.3429 17.6681 87.5713 17.6681L87.9567 17.7625C88.1565 17.776 88.6133 17.7895 89.3556 17.83C90.0979 17.8704 90.6261 17.8839 90.9544 17.8839L91.7823 17.8569C93.0527 15.9817 94.5658 13.8501 96.3359 11.4757C95.0512 12.474 93.6237 12.9732 92.0535 12.9732C91.3112 12.9732 90.6689 12.8113 90.1407 12.474C89.5983 12.1368 89.3413 11.7051 89.3413 11.1924C89.3413 10.6797 89.5412 10.275 89.9552 9.96472C90.3691 9.66792 90.7545 9.51951 91.1257 9.51951C91.4968 9.51951 91.6824 9.57348 91.6824 9.68141C91.6824 9.72188 91.6253 9.76235 91.5253 9.80283C91.4254 9.85679 91.3683 9.89726 91.3683 9.93774C91.3683 10.0861 91.5396 10.221 91.8822 10.329C92.2248 10.4369 92.6102 10.5044 93.0384 10.5044C93.4667 10.5044 93.9806 10.3829 94.6086 10.1536C95.2367 9.92424 95.8791 9.61395 96.55 9.2497C97.4921 8.73704 98.2344 8.30533 98.7768 7.96805C99.0908 7.81965 99.3764 7.7522 99.6618 7.7522C99.9473 7.7522 100.133 7.77918 100.261 7.84663C100.39 7.9006 100.475 7.96805 100.533 8.02202C100.59 8.07598 100.661 8.15693 100.718 8.25136C100.79 8.3458 100.847 8.42675 100.918 8.46722C100.975 8.52118 101.018 8.57515 101.018 8.6426C101.018 8.71006 100.975 8.80449 100.904 8.9529C100.832 9.08781 100.461 9.65443 99.7903 10.6393C99.1194 11.6241 98.2486 12.8788 97.1923 14.4032C96.136 15.9277 95.3652 17.0475 94.8799 17.776C97.4921 17.776 100.304 17.7355 103.33 17.6411C107.013 12.1503 108.955 9.27668 109.154 9.00686C109.354 8.73704 109.54 8.56166 109.711 8.48071C109.882 8.39977 110.082 8.35929 110.325 8.35929L111.567 8.45373Z" fill="#222222"/>
<path id="Vector_8" d="M116.335 17.6545C116.635 17.6545 116.935 17.7759 117.234 18.0323C117.548 18.2886 117.691 18.6663 117.691 19.179C117.691 19.6917 117.506 20.3527 117.12 21.1757C116.735 21.9851 116.221 22.8216 115.55 23.6715C114.893 24.5079 114.151 25.3039 113.366 26.0459C112.567 26.7879 111.71 27.395 110.796 27.8672C109.869 28.3394 109.041 28.5822 108.284 28.5822C107.528 28.5822 106.928 28.3529 106.471 27.9077C106.015 27.4625 105.786 26.8419 105.786 26.0459C105.786 25.2499 106 24.3595 106.414 23.4017C106.828 22.4303 107.356 21.5804 108.013 20.8384C108.67 20.0964 109.369 19.4353 110.14 18.8417C111.724 17.6275 113.123 17.0339 114.322 17.0339C114.865 17.0339 115.264 17.1554 115.536 17.4117C115.636 17.4926 115.678 17.5736 115.678 17.6275V17.7085C115.835 17.6545 116.05 17.6545 116.335 17.6545ZM114.865 19.4893H114.765C114.422 19.4893 114.251 19.26 114.251 18.7878C113.537 19.0036 112.795 19.3949 112.01 19.948C111.225 20.5011 110.525 21.1622 109.911 21.9177C108.655 23.4287 108.027 24.7103 108.013 25.7491C108.013 26.2618 108.213 26.5181 108.612 26.5181C109.012 26.5181 109.612 26.2618 110.397 25.7761C111.182 25.2904 111.967 24.5754 112.752 23.6445C113.523 22.7271 114.108 21.9177 114.494 21.2431C114.879 20.5686 115.079 20.1099 115.079 19.8535C115.065 19.6107 114.993 19.4893 114.865 19.4893Z" fill="#222222"/>
<path id="Vector_9" d="M117.376 28.2719L116.663 28.2449H116.406C116.306 28.2179 116.206 28.1639 116.092 28.083C115.977 28.002 115.892 27.9346 115.835 27.9076C115.778 27.8806 115.749 27.7997 115.749 27.7052C115.749 27.6108 115.792 27.4354 115.863 27.2061C117.762 23.2532 119.603 20.0828 121.387 17.7219C121.587 17.4656 121.901 17.2632 122.33 17.1283C122.758 16.9934 123.186 16.9259 123.6 16.9259C123.843 16.9259 123.971 17.1013 123.971 17.4656C123.971 17.5735 123.928 17.7084 123.857 17.8703C123.786 18.0457 123.586 18.3155 123.272 18.7068C122.958 19.098 122.587 19.5432 122.158 20.0289C121.73 20.5145 121.487 20.8113 121.43 20.8923C122.772 19.5837 123.971 18.6123 125.056 17.9648C126.141 17.3307 126.912 17.0069 127.397 17.0069C127.882 17.0069 128.254 17.1418 128.51 17.3981C128.767 17.6545 128.896 17.9378 128.896 18.2346C128.896 18.5314 128.867 18.7877 128.825 18.9766C128.782 19.1789 128.696 19.3813 128.582 19.5972C128.468 19.813 128.368 20.0019 128.282 20.1503C128.196 20.2987 128.054 20.5011 127.868 20.7439C127.668 20.9867 127.54 21.1621 127.468 21.2565C127.397 21.351 127.24 21.5264 127.012 21.7827C126.783 22.039 126.655 22.1874 126.641 22.2144C126.912 21.9581 127.297 21.5803 127.782 21.0677C128.268 20.555 128.682 20.1368 129.024 19.7995C129.367 19.4623 129.781 19.071 130.295 18.6393C130.809 18.2076 131.28 17.8568 131.708 17.6005C132.764 16.9799 133.835 16.6561 134.92 16.6561C135.291 16.6561 135.605 16.7641 135.862 16.9934C136.119 17.2227 136.247 17.4791 136.247 17.7894C136.247 18.0997 135.848 18.8417 135.062 20.0019C134.277 21.1621 133.478 22.3358 132.693 23.5095C131.908 24.6833 131.508 25.4253 131.508 25.7356C131.508 26.1538 131.594 26.4101 131.751 26.491C131.922 26.572 132.122 26.599 132.35 26.5855C132.579 26.572 132.921 26.4236 133.335 26.1538C133.763 25.884 134.135 25.6141 134.463 25.3173C135.005 24.8586 135.491 24.4134 135.962 23.9817C136.062 23.9008 136.162 23.8603 136.29 23.8603C136.476 23.8603 136.59 23.9952 136.633 24.265C136.675 24.5349 136.69 24.8047 136.69 25.1015C136.69 25.3983 136.661 25.5872 136.604 25.6951C136.319 26.2077 135.691 26.8418 134.734 27.5973C133.763 28.3393 132.836 28.7171 131.951 28.7171C131.836 28.7171 131.765 28.7171 131.722 28.7036C130.723 28.6091 130.024 28.3528 129.638 27.9211C129.253 27.4894 129.067 26.9767 129.067 26.3966C129.067 25.8165 129.281 25.088 129.71 24.2515C130.138 23.4151 130.595 22.6461 131.108 21.9716C131.622 21.297 132.079 20.6764 132.507 20.1233C132.936 19.5702 133.15 19.2734 133.15 19.2329C133.15 19.1924 133.107 19.1654 133.035 19.1654C132.736 19.1654 132.065 19.6241 131.009 20.555C129.224 22.1335 127.683 23.6579 126.384 25.115C126.041 25.5062 125.227 26.4776 123.957 28.056C123.814 28.2449 123.571 28.3393 123.257 28.3393C122.943 28.3393 122.615 28.2853 122.272 28.1639C121.93 28.0425 121.759 27.8941 121.759 27.7187C121.759 27.6243 122.529 26.3292 124.085 23.8333C125.641 21.3375 126.412 19.9749 126.412 19.7591C126.412 19.5297 126.269 19.4218 125.984 19.4218C125.698 19.4218 125.099 19.8265 124.2 20.636C121.73 22.862 119.817 25.088 118.461 27.287C118.376 27.4219 118.204 27.6243 117.947 27.8941C117.69 28.1639 117.462 28.2719 117.376 28.2719Z" fill="#222222"/>
<path id="Vector_10" d="M145.683 17.8434C145.683 18.4505 145.426 18.9901 144.898 19.4488C144.37 19.9075 143.784 20.1369 143.113 20.1369C142.899 20.1369 142.757 20.0829 142.685 19.9885C142.614 19.894 142.585 19.7591 142.585 19.6107C142.585 19.4623 142.6 19.3004 142.642 19.152C142.286 19.26 141.9 19.4353 141.472 19.6647C141.044 19.894 140.516 20.2313 139.887 20.69C139.259 21.1487 138.945 21.4725 138.945 21.7018C138.945 21.7693 139.06 21.8097 139.288 21.8097C139.516 21.8097 139.873 21.7288 140.344 21.5804C140.815 21.432 141.158 21.3511 141.343 21.3511C141.529 21.3511 141.657 21.3645 141.715 21.378C141.843 21.4455 141.972 21.5804 142.129 21.7963C142.271 22.0121 142.343 22.1875 142.343 22.3089C142.343 22.4303 142.214 22.5922 141.957 22.7946C141.7 22.997 141.415 23.1454 141.101 23.2533C140.772 23.3612 140.558 23.4422 140.458 23.4961C138.403 24.5889 137.375 25.3309 137.375 25.7356C137.375 26.4506 138.017 26.8149 139.316 26.8149C140.144 26.8149 140.987 26.5721 141.815 26.0729C142.528 25.6547 143.171 25.223 143.742 24.7778C144.313 24.3461 144.669 24.0762 144.826 23.9683C144.983 23.8604 145.098 23.8199 145.169 23.8199C145.426 23.8199 145.554 24.0897 145.554 24.6294C145.554 25.169 145.526 25.5198 145.455 25.6817C145.383 25.857 145.198 26.0594 144.869 26.3157C142.785 27.9212 140.801 28.7306 138.945 28.7306C137.946 28.7306 137.161 28.5957 136.561 28.3394C135.462 27.8672 134.92 27.1522 134.92 26.1808C134.92 24.9127 135.848 23.9413 137.718 23.2938C137.347 23.1319 137.104 22.943 137.004 22.6867C136.89 22.4438 136.847 22.0526 136.847 21.5129C136.847 20.9733 137.118 20.4067 137.646 19.7996C138.174 19.1925 138.831 18.6933 139.602 18.3156C141.315 17.4387 142.857 17.007 144.198 17.007C144.527 17.007 144.841 17.0744 145.183 17.2228C145.526 17.3712 145.683 17.5736 145.683 17.8434Z" fill="#222222"/>
</g>
<g id="Group_2">
<path id="Vector_11" d="M0.982422 32.0089C4.73662 33.4929 8.56219 34.6396 12.4591 35.5165C16.3275 36.4339 20.2673 37.0815 24.2071 37.4862C26.177 37.7425 28.1611 37.7695 30.1168 37.9449C32.1009 37.9584 34.0708 38.1068 36.0407 37.9989L38.9955 37.9314C39.9805 37.9179 40.9654 37.7965 41.9503 37.7425C42.9353 37.6616 43.9202 37.6211 44.8909 37.4997L47.8172 37.1085C51.7427 36.7037 55.554 35.8403 59.351 34.8015C63.1908 33.8032 66.8166 32.4811 70.6564 31.105C74.5819 29.7424 78.8357 28.852 83.1466 29.2837C85.2736 29.54 87.4147 30.1876 89.1562 31.3748C90.912 32.5485 92.1682 34.2214 92.9675 35.9752C91.7685 34.4103 90.2696 33.1286 88.5424 32.3327C86.8152 31.5367 84.9167 31.2129 83.0324 31.2669C79.2211 31.3208 75.4669 32.5215 71.9411 34.0325C68.3582 35.7054 64.4755 37.2164 60.5643 38.4711C56.6245 39.6717 52.5563 40.6296 48.431 41.1153C40.2231 42.1406 31.8154 42.1541 23.7075 40.6026C19.6392 39.9011 15.6709 38.8083 11.8311 37.4188C8.01975 35.9752 4.29411 34.2889 0.982422 32.0089Z" fill="#222222"/>
</g>
<g id="Group_3">
<path id="Vector_12" d="M137.49 9.54648C134.307 8.26483 131.067 7.2665 127.783 6.48403C124.515 5.66108 121.203 5.08097 117.877 4.67624C116.221 4.4334 114.537 4.37944 112.881 4.19056C111.211 4.15009 109.555 3.9882 107.885 4.05565C107.057 4.06914 106.215 4.06914 105.387 4.05565C104.559 4.05565 103.717 4.1366 102.889 4.16358C102.061 4.21754 101.219 4.23104 100.391 4.31198L97.9068 4.59529C94.5809 4.85162 91.3548 5.49919 88.1288 6.29515C84.8599 7.03716 81.7623 8.08945 78.4649 9.14175C75.0819 10.2075 71.4133 10.8551 67.7305 10.3694C65.9176 10.0861 64.0905 9.47902 62.6487 8.39974C61.1785 7.33396 60.1792 5.87693 59.5654 4.35245C60.5789 5.68806 61.8351 6.78083 63.2768 7.45538C64.7185 8.12993 66.303 8.41323 67.8875 8.39974C71.085 8.39974 74.2539 7.4284 77.2516 6.21421C80.3063 4.83813 83.6608 3.62394 87.0011 2.62561C90.3699 1.66775 93.8814 0.939238 97.3929 0.588472C104.402 -0.113058 111.568 0.0488333 118.434 1.5868C121.874 2.27484 125.228 3.32714 128.44 4.62227C131.666 5.94439 134.778 7.48236 137.49 9.54648Z" fill="#222222"/>
</g>
</g>
</svg>
