<svg width="132" height="41" viewBox="0 0 132 41" fill="none" xmlns="http://www.w3.org/2000/svg">
<g id="01">
<g id="Group">
<path id="Vector" d="M11.6337 0.135498V0.310882L10.8629 0.486264V8.25706L11.6337 8.43245V8.60783H7.97946V8.43245L8.7503 8.25706V1.633L5.7241 8.72925H5.33866L1.41317 1.633V8.06819L2.44093 8.43245V8.60783H0V8.43245L1.02777 8.06819V0.486264L0.256931 0.310882V0.135498H1.85567C2.09834 0.135498 2.31246 0.162479 2.48376 0.216443C2.65505 0.270407 2.82637 0.337862 2.95484 0.432299C3.09758 0.526735 3.21178 0.634665 3.3117 0.756084C3.41162 0.877503 3.49728 1.0259 3.58292 1.1743L6.38072 6.23342L8.5219 1.1743C8.59327 0.998921 8.66466 0.85052 8.76459 0.729102C8.85023 0.607683 8.9644 0.499755 9.09287 0.405319C9.22134 0.310882 9.37839 0.243425 9.56396 0.202952C9.74953 0.162479 9.9779 0.135498 10.2634 0.135498H11.6337Z" fill="#222222"/>
<path id="Vector_2" d="M16.202 2.38855C16.7302 2.38855 17.2155 2.456 17.6295 2.60441C18.0434 2.75281 18.4003 2.96866 18.7001 3.23848C18.9998 3.52179 19.214 3.85906 19.371 4.2503C19.528 4.64154 19.5994 5.10023 19.5994 5.5994C19.5994 6.09857 19.528 6.55726 19.371 6.9485C19.214 7.33974 18.9856 7.67701 18.7001 7.96032C18.4003 8.24363 18.0434 8.446 17.6295 8.5944C17.2155 8.7428 16.7302 8.81025 16.202 8.81025C15.6739 8.81025 15.1885 8.7428 14.7746 8.5944C14.3606 8.446 14.0038 8.23014 13.704 7.96032C13.4042 7.67701 13.1901 7.33974 13.0331 6.9485C12.8761 6.55726 12.8047 6.09857 12.8047 5.5994C12.8047 5.10023 12.8761 4.64154 13.0331 4.2503C13.1901 3.85906 13.4185 3.52179 13.704 3.23848C14.0038 2.95517 14.3606 2.75281 14.7746 2.60441C15.1885 2.456 15.6596 2.38855 16.202 2.38855ZM16.202 8.58091C16.3448 8.58091 16.4875 8.54043 16.6445 8.446C16.7873 8.35156 16.9157 8.20316 17.0299 7.97381C17.1441 7.74447 17.2441 7.44766 17.3154 7.06992C17.3868 6.67868 17.4296 6.193 17.4296 5.61289C17.4296 5.01929 17.3868 4.53361 17.3154 4.15587C17.2441 3.77812 17.1441 3.46783 17.0299 3.25197C16.9157 3.03612 16.7873 2.87423 16.6445 2.77979C16.5018 2.68535 16.3591 2.64488 16.202 2.64488C16.0593 2.64488 15.9165 2.68535 15.7595 2.77979C15.6168 2.87423 15.4883 3.02262 15.3741 3.25197C15.2599 3.48132 15.16 3.77812 15.0886 4.15587C15.0172 4.5471 14.9744 5.03278 14.9744 5.61289C14.9744 6.20649 15.0172 6.69217 15.0886 7.06992C15.16 7.44766 15.2599 7.75796 15.3741 7.97381C15.4883 8.18967 15.6168 8.35156 15.7595 8.446C15.9023 8.52694 16.045 8.58091 16.202 8.58091Z" fill="#222222"/>
<path id="Vector_3" d="M25.8369 0.135498C26.6078 0.135498 26.9932 0.499754 26.9932 1.22827V8.27056L27.764 8.44594V8.62132H26.6078C26.2937 8.62132 26.051 8.58085 25.8655 8.48641C25.6799 8.39197 25.5229 8.28405 25.423 8.17612C25.2945 8.04121 25.1946 7.87932 25.1375 7.71743C25.0233 7.93328 24.8805 8.10866 24.7092 8.27056C24.5665 8.40547 24.3666 8.52688 24.124 8.6483C23.8813 8.76972 23.5958 8.82369 23.2675 8.82369C22.8964 8.82369 22.5538 8.75623 22.2397 8.62132C21.9114 8.48641 21.6402 8.28405 21.4118 8.01423C21.1834 7.74441 20.9836 7.40713 20.8551 7.0159C20.7124 6.61117 20.6553 6.15247 20.6553 5.61283C20.6553 5.07319 20.7267 4.6145 20.8551 4.20977C20.9979 3.80504 21.1834 3.48126 21.4404 3.21144C21.683 2.94162 21.9828 2.73926 22.3254 2.60435C22.668 2.46944 23.0534 2.40198 23.4816 2.40198C23.71 2.40198 23.9099 2.42896 24.0954 2.46944C24.281 2.5234 24.438 2.57737 24.5665 2.64482C24.7235 2.71227 24.852 2.79322 24.9662 2.88766V0.526738L24.1954 0.351353V0.175972H25.8369V0.135498ZM24.9376 3.23842C24.8377 3.14398 24.7521 3.06304 24.6379 2.99559C24.538 2.92813 24.438 2.87417 24.3238 2.8202C24.2096 2.76624 24.0954 2.75275 23.967 2.75275C23.81 2.75275 23.6529 2.79322 23.5102 2.87417C23.3674 2.95511 23.2532 3.09002 23.139 3.29239C23.0391 3.49475 22.9535 3.79155 22.8964 4.15581C22.8393 4.53356 22.8107 5.00574 22.8107 5.59934C22.8107 6.17945 22.8393 6.63815 22.8964 7.0024C22.9535 7.36666 23.0249 7.64997 23.1248 7.85233C23.2104 8.0547 23.3104 8.2031 23.4388 8.27056C23.553 8.33801 23.6672 8.37848 23.7814 8.37848C23.9812 8.37848 24.1525 8.32452 24.2953 8.23008C24.438 8.13565 24.5522 8.01423 24.6521 7.89281C24.7663 7.74441 24.8663 7.58251 24.9519 7.40713V3.23842H24.9376Z" fill="#222222"/>
<path id="Vector_4" d="M32.0605 8.8238C30.9614 8.8238 30.1049 8.54049 29.5054 7.97387C28.8916 7.40725 28.5918 6.61128 28.5918 5.61295C28.5918 5.11378 28.6632 4.65509 28.8202 4.26385C28.9772 3.87261 29.1913 3.53534 29.4626 3.25203C29.7338 2.96872 30.0621 2.76636 30.4618 2.61795C30.8472 2.46955 31.2754 2.4021 31.7465 2.4021C32.2318 2.4021 32.6601 2.46955 33.0312 2.59097C33.4166 2.72588 33.7306 2.90127 34.0019 3.11712C34.2731 3.33298 34.4729 3.58931 34.6157 3.88611C34.7584 4.18291 34.8298 4.4932 34.8298 4.83047C34.8298 4.9384 34.8298 5.04633 34.8155 5.12728C34.8012 5.20822 34.787 5.28917 34.7727 5.35662C34.7441 5.43757 34.7298 5.50502 34.7013 5.55899C34.3302 5.62644 33.9305 5.6939 33.5022 5.73437C33.1454 5.78833 32.7314 5.82881 32.2604 5.85579C31.7893 5.88277 31.304 5.90975 30.7901 5.90975C30.7901 6.40892 30.8329 6.82714 30.9043 7.16441C30.9756 7.50169 31.0898 7.77151 31.2183 7.96038C31.3611 8.16274 31.5181 8.29766 31.7036 8.3786C31.8892 8.45955 32.1034 8.50002 32.3175 8.50002C32.5744 8.50002 32.8171 8.45955 33.0454 8.36511C33.2738 8.27067 33.4737 8.16274 33.6307 8.01434C33.802 7.86594 33.9305 7.69056 34.0304 7.50169C34.1303 7.31282 34.1731 7.12394 34.1731 6.92158H34.4872C34.4872 7.16441 34.4301 7.39376 34.3159 7.62311C34.2017 7.85245 34.0304 8.05482 33.8163 8.2302C33.6022 8.40558 33.3452 8.54049 33.0454 8.64842C32.76 8.76984 32.4316 8.8238 32.0605 8.8238ZM30.7758 5.59946C31.0613 5.59946 31.3182 5.59946 31.5466 5.58597C31.775 5.57248 31.9606 5.55899 32.1176 5.5455C32.3032 5.53201 32.4459 5.50502 32.5744 5.49153C32.5887 5.41059 32.6172 5.31615 32.6315 5.22171C32.6458 5.12728 32.6601 5.03284 32.6743 4.92491C32.6886 4.81698 32.6886 4.69557 32.6886 4.57415C32.6886 4.20989 32.66 3.8996 32.6029 3.65676C32.5458 3.41392 32.4745 3.21156 32.3745 3.04967C32.2889 2.90127 32.189 2.77985 32.0605 2.72588C31.932 2.67192 31.8321 2.63145 31.7179 2.63145C31.6037 2.63145 31.4895 2.67192 31.3753 2.75287C31.2612 2.83381 31.1612 2.98221 31.0613 3.18458C30.9757 3.40043 30.89 3.69723 30.8329 4.08847C30.7758 4.47971 30.7758 4.97887 30.7758 5.59946Z" fill="#222222"/>
<path id="Vector_5" d="M40.2255 2.80669C39.9686 2.80669 39.7402 2.86065 39.5403 2.95509C39.3405 3.04953 39.1692 3.17095 39.0264 3.29236C38.8694 3.44076 38.7409 3.60266 38.6125 3.77804V8.27053L39.3833 8.44592V8.6213H35.7861V8.44592L36.557 8.27053V2.92811L35.7861 2.75273V2.57734H36.9424C37.2421 2.57734 37.4848 2.63131 37.6846 2.72574C37.8702 2.82018 38.0272 2.92811 38.1414 3.03603C38.2699 3.17094 38.3698 3.31935 38.4269 3.48124C38.5554 3.30585 38.7124 3.14396 38.898 2.99556C39.055 2.87414 39.2549 2.76622 39.4975 2.65829C39.7402 2.55036 40.0114 2.50989 40.3397 2.50989C40.7965 2.50989 41.1391 2.61781 41.3675 2.80669C41.5959 3.00905 41.6958 3.29236 41.6958 3.65662C41.6958 3.92644 41.6101 4.15579 41.4388 4.31768C41.2675 4.47957 41.0249 4.56052 40.7394 4.56052C40.668 4.56052 40.6109 4.56052 40.5395 4.56052C40.4682 4.56052 40.4254 4.54702 40.3825 4.54702C40.3254 4.53353 40.2683 4.53353 40.2255 4.50655V2.80669Z" fill="#222222"/>
<path id="Vector_6" d="M47.2198 4.38515C47.2198 4.11534 47.1913 3.8725 47.1342 3.67013C47.0771 3.46777 47.0057 3.30588 46.9058 3.18446C46.8202 3.04955 46.7203 2.95511 46.5918 2.90115C46.4776 2.84718 46.3634 2.80671 46.2492 2.80671C46.0493 2.80671 45.878 2.86068 45.7353 2.95511C45.5926 3.04955 45.4641 3.17097 45.3784 3.29239C45.2642 3.44079 45.1786 3.60268 45.0929 3.77806V8.27056L45.8638 8.44594V8.62132H42.2666V8.44594L43.0374 8.27056V2.92813L42.2666 2.75275V2.57736H43.4228C43.7226 2.57736 43.9653 2.63133 44.1651 2.72577C44.3507 2.8202 44.5077 2.92813 44.6219 3.03606C44.7504 3.17097 44.8503 3.31937 44.9074 3.48126C45.0216 3.27889 45.1643 3.09002 45.3356 2.92813C45.4784 2.79322 45.6782 2.6718 45.9066 2.55038C46.135 2.42897 46.4347 2.375 46.7773 2.375C47.1485 2.375 47.4911 2.42897 47.7908 2.55038C48.1049 2.65831 48.3618 2.8202 48.5759 2.99559C48.79 3.18446 48.9614 3.38682 49.0898 3.62966C49.2183 3.8725 49.2754 4.11533 49.2754 4.37166V8.25707L50.0462 8.43245V8.60783H48.3761C47.6053 8.60783 47.2198 8.24357 47.2198 7.51506V4.38515Z" fill="#222222"/>
<path id="Vector_7" d="M1.35645 17.1476V16.6484H11.2772V17.1476L9.19315 17.6468V27.8325H16.673V17.6468L14.5889 17.1476V16.6484H24.5097V17.1476L22.4256 17.6468V38.6927L24.5097 39.1919V39.691H14.5889V39.1784L16.673 38.6792V28.6554H9.19315V38.6792L11.2772 39.1784V39.6775H1.35645V39.1784L3.44052 38.6792V17.6333L1.35645 17.1476Z" fill="#222222"/>
<path id="Vector_8" d="M36.8424 22.7329C38.2842 22.7329 39.5689 22.9353 40.7108 23.3265C41.8528 23.7177 42.8092 24.2979 43.6085 25.0534C44.4079 25.8089 45.0217 26.7262 45.4357 27.8055C45.8496 28.8848 46.0638 30.099 46.0638 31.4616C46.0638 32.8242 45.8496 34.0383 45.4357 35.1176C45.0217 36.1969 44.4079 37.1008 43.6085 37.8563C42.8092 38.6118 41.8385 39.1919 40.7108 39.5831C39.5689 39.9744 38.2842 40.1767 36.8424 40.1767C35.4007 40.1767 34.116 39.9744 32.974 39.5831C31.8321 39.1919 30.8757 38.6118 30.0763 37.8563C29.2769 37.1008 28.6631 36.1834 28.2492 35.1176C27.8352 34.0383 27.6211 32.8242 27.6211 31.4616C27.6211 30.099 27.8352 28.8848 28.2492 27.8055C28.6631 26.7262 29.2769 25.8223 30.0763 25.0534C30.8757 24.2844 31.8464 23.7177 32.974 23.3265C34.116 22.9353 35.4007 22.7329 36.8424 22.7329ZM36.8424 39.5022C37.2421 39.5022 37.6276 39.3808 38.0272 39.1379C38.4269 38.8951 38.7695 38.4769 39.0835 37.8698C39.3976 37.2627 39.6545 36.4397 39.8544 35.4009C40.0542 34.3621 40.1541 33.04 40.1541 31.4346C40.1541 29.8292 40.0542 28.507 39.8544 27.4682C39.6545 26.4294 39.3976 25.6065 39.0835 24.9994C38.7695 24.3923 38.4127 23.9741 38.0272 23.7312C37.6418 23.4884 37.2421 23.367 36.8424 23.367C36.4427 23.367 36.0574 23.4884 35.6577 23.7312C35.258 23.9741 34.9154 24.3923 34.6013 24.9994C34.2873 25.6065 34.0304 26.4294 33.8305 27.4682C33.6307 28.507 33.5307 29.8292 33.5307 31.4346C33.5307 33.04 33.6307 34.3621 33.8305 35.4009C34.0304 36.4397 34.2873 37.2627 34.6013 37.8698C34.9154 38.4769 35.2723 38.8951 35.6577 39.1379C36.0574 39.3808 36.4427 39.5022 36.8424 39.5022Z" fill="#222222"/>
<path id="Vector_9" d="M72.1433 28.1563C72.1433 27.3738 72.072 26.6993 71.9292 26.1731C71.7865 25.647 71.6152 25.2018 71.3868 24.8645C71.1584 24.5272 70.9157 24.2844 70.6588 24.1225C70.3876 23.9741 70.1306 23.8931 69.8737 23.8931C69.4312 23.8931 69.0458 24.028 68.7032 24.2979C68.3606 24.5677 68.0751 24.878 67.8182 25.2018C67.5469 25.593 67.29 26.0382 67.0902 26.5104V38.6792L69.1885 39.1784V39.6776H59.4533V39.1784L61.5374 38.6792V28.1563C61.5374 27.3738 61.466 26.6993 61.3232 26.1731C61.1805 25.647 61.0092 25.2018 60.7808 24.8645C60.5524 24.5272 60.3098 24.2844 60.0528 24.1225C59.7816 23.9741 59.5246 23.8931 59.2677 23.8931C58.8252 23.8931 58.4398 24.028 58.0972 24.2979C57.7546 24.5677 57.4691 24.878 57.2122 25.2018C56.9267 25.593 56.684 26.0382 56.4842 26.5104V38.6792L58.5683 39.1784V39.6776H48.833V39.1784L50.9171 38.6792V24.2169L48.833 23.7178V23.2186H51.9591C52.7728 23.2186 53.4437 23.3535 53.9576 23.6098C54.4857 23.8662 54.8854 24.163 55.1995 24.4598C55.5421 24.8375 55.799 25.2422 55.9703 25.6739C56.27 25.1208 56.6412 24.6351 57.0837 24.1899C57.4834 23.8122 57.9687 23.4749 58.5397 23.1646C59.125 22.8543 59.8244 22.7059 60.6666 22.7059C62.0512 22.7059 63.2646 23.0027 64.2638 23.5828C65.2773 24.163 66.0481 24.9185 66.5763 25.8358C66.8761 25.2692 67.2472 24.7566 67.6897 24.2844C68.0894 23.8931 68.5747 23.5289 69.1457 23.2051C69.7309 22.8813 70.4304 22.7059 71.2726 22.7059C72.229 22.7059 73.0855 22.8543 73.8848 23.1376C74.6699 23.421 75.3551 23.8122 75.9261 24.3114C76.4971 24.8105 76.9396 25.3771 77.2536 26.0382C77.5677 26.6993 77.7247 27.4008 77.7247 28.1428V38.6658L79.8088 39.1649V39.6641H75.2837C73.1996 39.6641 72.1576 38.6792 72.1576 36.7096V28.1563H72.1433Z" fill="#222222"/>
<path id="Vector_10" d="M91.2852 40.1633C88.3161 40.1633 86.0037 39.3943 84.3621 37.8429C82.7205 36.2914 81.8926 34.1733 81.8926 31.4481C81.8926 30.0855 82.1067 28.8714 82.5207 27.7921C82.9346 26.7128 83.5199 25.8089 84.2622 25.0399C85.0044 24.2844 85.9037 23.7043 86.9601 23.3131C88.0164 22.9218 89.1726 22.7195 90.4145 22.7195C91.7135 22.7195 92.884 22.8949 93.9118 23.2456C94.9395 23.5964 95.8245 24.0686 96.5383 24.6622C97.252 25.2558 97.8087 25.9573 98.1941 26.7533C98.5795 27.5492 98.7651 28.3992 98.7651 29.3031C98.7651 29.6134 98.7508 29.8832 98.708 30.1125C98.6652 30.3419 98.6366 30.5442 98.5795 30.7196C98.5081 30.9355 98.451 31.1244 98.4082 31.2728C97.3805 31.4751 96.3099 31.637 95.1679 31.7719C94.1973 31.9068 93.0695 32.0148 91.7991 32.1227C90.5287 32.2171 89.1869 32.2711 87.8023 32.2711C87.8023 33.6337 87.9022 34.7669 88.1163 35.6708C88.3304 36.5747 88.6159 37.3032 88.987 37.8429C89.3582 38.3825 89.8007 38.7602 90.3145 38.9896C90.8284 39.2189 91.3852 39.3404 91.9847 39.3404C92.6841 39.3404 93.3408 39.2189 93.9546 38.9761C94.5684 38.7333 95.0965 38.4095 95.5533 38.0048C96.0101 37.6 96.367 37.1413 96.6382 36.6287C96.9094 36.116 97.0379 35.5899 97.0379 35.0637H97.9086C97.9086 35.7248 97.7516 36.3589 97.4376 36.9659C97.1235 37.5865 96.681 38.1262 96.0958 38.5984C95.5105 39.0705 94.8253 39.4483 94.0117 39.7316C93.1838 40.0149 92.2702 40.1633 91.2852 40.1633ZM87.8023 31.4481C88.5874 31.4481 89.2868 31.4347 89.8863 31.3942C90.4859 31.3537 90.9998 31.3267 91.4137 31.2862C91.899 31.2458 92.313 31.1918 92.6699 31.1244C92.7127 30.9085 92.7698 30.6657 92.8412 30.3958C92.884 30.153 92.9268 29.8832 92.9553 29.5864C92.9839 29.2896 93.0125 28.9793 93.0125 28.6555C93.0125 27.6707 92.9268 26.8477 92.7698 26.1732C92.6127 25.4986 92.3986 24.959 92.156 24.5408C91.9133 24.1225 91.6278 23.8257 91.3281 23.6504C91.014 23.475 90.7 23.3805 90.4002 23.3805C90.1004 23.3805 89.7864 23.4885 89.4724 23.6908C89.1583 23.9067 88.8871 24.2979 88.6444 24.878C88.4018 25.4581 88.2019 26.2811 88.0307 27.3334C87.8879 28.3857 87.8023 29.7618 87.8023 31.4481Z" fill="#222222"/>
</g>
<g id="Group_2">
<path id="Vector_11" d="M115.852 39.3403V25.9977L103.376 16.662V39.3403H115.852Z" fill="#222222"/>
</g>
<g id="Group_3">
<path id="Vector_12" d="M131.283 39.3403V25.9977L119.007 16.662V39.3403H131.283Z" fill="#222222"/>
</g>
</g>
</svg>
