<svg width="164" height="41" viewBox="0 0 164 41" fill="none" xmlns="http://www.w3.org/2000/svg">
<g id="03">
<g id="Icon">
<path id="Vector" d="M35.3997 40.5635H8.58142C4.17427 40.5635 0.602539 37.1878 0.602539 33.0225V7.67641C0.602539 3.51117 4.17427 0.135498 8.58142 0.135498H35.3997C39.8068 0.135498 43.3786 3.51117 43.3786 7.67641V33.0225C43.3786 37.1878 39.8068 40.5635 35.3997 40.5635Z" fill="#222222"/>
<path id="Vector_2" d="M29.6972 20.7214C30.46 21.6254 30.8474 22.6781 30.8474 23.8682C30.8474 25.619 30.2299 26.9921 28.995 27.9648C27.76 28.9374 25.9923 29.4409 23.6918 29.4409H13.6426V9.01526H23.4497C25.6533 9.01526 27.3483 9.47298 28.547 10.377C29.7456 11.281 30.351 12.574 30.351 14.2447C30.351 15.4805 29.9999 16.499 29.3098 17.3228C28.6196 18.1467 27.7116 18.6731 26.5856 18.9249C27.9053 19.2224 28.9344 19.8174 29.6972 20.7214ZM18.8609 17.3686H22.2874C24.1035 17.3686 25.0116 16.6363 25.0116 15.1716C25.0116 13.7069 24.0793 12.9745 22.2268 12.9745H18.8609V17.3686ZM25.4959 23.1816C25.4959 22.4493 25.2416 21.8771 24.7331 21.4652C24.2246 21.0533 23.4981 20.8473 22.5658 20.8473H18.873V25.4359H22.6022C24.5273 25.4245 25.4959 24.6807 25.4959 23.1816Z" fill="white"/>
</g>
<g id="Vector_3">
<path d="M68.1628 29.4413L63.4893 21.7287H62.3027V29.4413H57.0723V9.01562H65.9955C67.7027 9.01562 69.1556 9.29026 70.3301 9.85096C71.5166 10.4117 72.4004 11.1783 72.9937 12.151C73.587 13.1236 73.8776 14.2336 73.8776 15.4923C73.8776 16.9799 73.4417 18.2386 72.5821 19.28C71.7103 20.3213 70.4632 21.0307 68.8045 21.4198L73.9381 29.4527H68.1628V29.4413ZM62.3027 18.3531H65.5354C66.5767 18.3531 67.3395 18.1357 67.8238 17.7008C68.3081 17.266 68.5623 16.6252 68.5623 15.7784C68.5623 14.966 68.3081 14.3366 67.8117 13.8674C67.3153 13.4097 66.5525 13.1694 65.5354 13.1694H62.3027V18.3531Z" fill="#222222"/>
<path d="M97.5357 25.7224H89.4358L88.0918 29.4528H82.595L90.5133 9.17584H96.5308L104.449 29.4528H98.8918L97.5357 25.7224ZM96.1918 21.9576L93.5039 14.451L90.7797 21.9576H96.1918Z" fill="#222222"/>
<path d="M133.301 29.4413H128.071L119.329 16.8998V29.4413H114.099V9.01565H119.329L128.071 21.6716V9.01565H133.301V29.4413Z" fill="#222222"/>
<path d="M162.626 24.5209C161.718 26.0657 160.41 27.2786 158.715 28.1483C157.008 29.0179 155.01 29.4528 152.71 29.4528H144.549V9.0271H152.71C155.035 9.0271 157.044 9.45049 158.727 10.2973C160.422 11.144 161.718 12.3341 162.626 13.8789C163.534 15.4237 163.982 17.1859 163.982 19.1999C163.982 21.191 163.522 22.9646 162.626 24.5209ZM156.996 23.491C158.122 22.4726 158.691 21.0308 158.691 19.1884C158.691 17.3347 158.122 15.9043 156.996 14.8859C155.87 13.8675 154.284 13.3525 152.238 13.3525H149.768V25.0243H152.238C154.284 25.0243 155.87 24.5208 156.996 23.491Z" fill="#222222"/>
</g>
</g>
</svg>
