<svg width="24" height="24" viewBox="0 0 24 24" fill="none" xmlns="http://www.w3.org/2000/svg">
<g id="shopping_cart_FILL0_wght300_GRAD0_opsz24 1">
<path id="Vector" d="M8.65385 21.5576C8.16797 21.5576 7.75483 21.3874 7.41445 21.0471C7.07407 20.7067 6.90388 20.2936 6.90388 19.8077C6.90388 19.3218 7.07407 18.9086 7.41445 18.5683C7.75483 18.2279 8.16797 18.0577 8.65385 18.0577C9.13975 18.0577 9.55289 18.2279 9.89328 18.5683C10.2337 18.9086 10.4039 19.3218 10.4039 19.8077C10.4039 20.2936 10.2337 20.7067 9.89328 21.0471C9.55289 21.3874 9.13975 21.5576 8.65385 21.5576ZM18.3462 21.5576C17.8603 21.5576 17.4471 21.3874 17.1067 21.0471C16.7663 20.7067 16.5962 20.2936 16.5962 19.8077C16.5962 19.3218 16.7663 18.9086 17.1067 18.5683C17.4471 18.2279 17.8603 18.0577 18.3462 18.0577C18.832 18.0577 19.2452 18.2279 19.5856 18.5683C19.9259 18.9086 20.0961 19.3218 20.0961 19.8077C20.0961 20.2936 19.9259 20.7067 19.5856 21.0471C19.2452 21.3874 18.832 21.5576 18.3462 21.5576ZM7.51538 5.74998L10.05 11.0577H16.8673C16.925 11.0577 16.9763 11.0433 17.0212 11.0144C17.066 10.9856 17.1045 10.9455 17.1366 10.8942L19.8192 6.0192C19.8577 5.94868 19.8609 5.88618 19.8289 5.8317C19.7968 5.7772 19.7423 5.74995 19.6654 5.74995L7.51538 5.74998ZM6.79615 4.25003H20.6807C21.0897 4.25003 21.399 4.42406 21.6086 4.77213C21.8182 5.12021 21.8282 5.47566 21.6384 5.83847L18.4346 11.6423C18.2705 11.9307 18.0535 12.1554 17.7836 12.3163C17.5138 12.4772 17.2179 12.5576 16.8962 12.5576H9.6L8.4423 14.673C8.39102 14.75 8.38942 14.8333 8.4375 14.9231C8.48558 15.0128 8.5577 15.0577 8.65385 15.0577H19.3462C19.559 15.0577 19.7372 15.1295 19.8808 15.2731C20.0243 15.4166 20.0961 15.5948 20.0961 15.8077C20.0961 16.0205 20.0243 16.1987 19.8808 16.3423C19.7372 16.4858 19.559 16.5576 19.3462 16.5576H8.65385C7.9872 16.5576 7.48624 16.2701 7.15098 15.6952C6.81573 15.1202 6.80387 14.5461 7.1154 13.9731L8.54235 11.4077L4.90388 3.74995H3.75003C3.53719 3.74995 3.35899 3.67816 3.21542 3.53457C3.07181 3.39099 3 3.21279 3 2.99998C3 2.78716 3.0718 2.60896 3.2154 2.46538C3.35898 2.32179 3.53718 2.25 3.75 2.25H5.27883C5.44934 2.25 5.60832 2.29519 5.75575 2.38558C5.90318 2.47596 6.01537 2.6032 6.0923 2.7673L6.79613 4.25L6.79615 4.25003Z" fill="#222222"/>
</g>
</svg>
