<svg width="24" height="24" viewBox="0 0 24 24" fill="none" xmlns="http://www.w3.org/2000/svg">
<g id="favorite_FILL0_wght300_GRAD0_opsz24 1">
<path id="Vector" d="M11.9904 20.5596C11.7763 20.5596 11.5612 20.5211 11.3452 20.4442C11.1291 20.3672 10.9391 20.2467 10.775 20.0826L9.33848 18.7769C7.56539 17.1602 5.98238 15.5721 4.58943 14.0125C3.19648 12.4528 2.5 10.782 2.5 8.99998C2.5 7.58076 2.97852 6.39263 3.93558 5.43558C4.89263 4.47853 6.08076 4 7.49998 4C8.30638 4 9.10285 4.1859 9.8894 4.5577C10.6759 4.9295 11.3795 5.53335 12 6.36925C12.6205 5.53335 13.324 4.9295 14.1105 4.5577C14.8971 4.1859 15.6936 4 16.5 4C17.9192 4 19.1073 4.47853 20.0644 5.43558C21.0214 6.39263 21.5 7.58076 21.5 8.99998C21.5 10.8012 20.7916 12.4907 19.375 14.0682C17.9583 15.6458 16.3788 17.2205 14.6365 18.7923L13.2154 20.0826C13.0513 20.2467 12.8596 20.3672 12.6404 20.4442C12.4211 20.5211 12.2045 20.5596 11.9904 20.5596ZM11.2808 7.88845C10.7397 7.06408 10.1702 6.45992 9.5721 6.07595C8.97402 5.69197 8.28331 5.49998 7.49998 5.49998C6.49998 5.49998 5.66664 5.83331 4.99998 6.49998C4.33331 7.16664 3.99998 7.99998 3.99998 8.99998C3.99998 9.80254 4.25863 10.6416 4.77593 11.5173C5.29323 12.3929 5.94257 13.2634 6.72398 14.1288C7.50539 14.9942 8.35187 15.8397 9.2634 16.6653C10.1749 17.491 11.0198 18.2583 11.798 18.9673C11.8557 19.0186 11.923 19.0442 12 19.0442C12.0769 19.0442 12.1442 19.0186 12.2019 18.9673C12.9801 18.2583 13.825 17.491 14.7366 16.6653C15.6481 15.8397 16.4946 14.9942 17.276 14.1288C18.0574 13.2634 18.7067 12.3929 19.224 11.5173C19.7413 10.6416 20 9.80254 20 8.99998C20 7.99998 19.6666 7.16664 19 6.49998C18.3333 5.83331 17.5 5.49998 16.5 5.49998C15.7166 5.49998 15.0259 5.69197 14.4279 6.07595C13.8298 6.45992 13.2602 7.06408 12.7192 7.88845C12.6346 8.01665 12.5282 8.11281 12.4 8.17693C12.2718 8.24103 12.1384 8.27308 12 8.27308C11.8615 8.27308 11.7282 8.24103 11.6 8.17693C11.4718 8.11281 11.3654 8.01665 11.2808 7.88845Z" fill="#222222"/>
</g>
</svg>
