<svg width="24" height="24" viewBox="0 0 24 24" fill="none" xmlns="http://www.w3.org/2000/svg">
<g id="person_FILL0_wght300_GRAD0_opsz24 1">
<path id="Vector" d="M12 11.6308C10.845 11.6308 9.85627 11.2196 9.03377 10.3971C8.21127 9.57462 7.80002 8.58588 7.80002 7.43091C7.80002 6.27591 8.21127 5.28718 9.03377 4.4647C9.85627 3.64221 10.845 3.23096 12 3.23096C13.155 3.23096 14.1437 3.64221 14.9662 4.4647C15.7887 5.28718 16.2 6.27591 16.2 7.43091C16.2 8.58588 15.7887 9.57462 14.9662 10.3971C14.1437 11.2196 13.155 11.6308 12 11.6308ZM3 18.9462V18.1016C3 17.5139 3.15962 16.9697 3.47886 16.4689C3.79808 15.9682 4.22461 15.5832 4.75846 15.3139C5.94462 14.7324 7.14116 14.2963 8.34809 14.0055C9.55501 13.7147 10.7723 13.5694 12 13.5694C13.2277 13.5694 14.445 13.7147 15.6519 14.0055C16.8588 14.2963 18.0554 14.7324 19.2415 15.3139C19.7754 15.5832 20.2019 15.9682 20.5211 16.4689C20.8404 16.9697 21 17.5139 21 18.1016V18.9462C21 19.4523 20.8227 19.8827 20.4681 20.2373C20.1135 20.5919 19.6831 20.7692 19.177 20.7692H4.82305C4.3169 20.7692 3.88653 20.5919 3.53193 20.2373C3.17731 19.8827 3 19.4523 3 18.9462ZM4.79998 18.9693H19.2V18.1016C19.2 17.8585 19.1296 17.6335 18.9889 17.4266C18.8481 17.2197 18.6569 17.0508 18.4154 16.92C17.3816 16.4108 16.3274 16.0251 15.2528 15.7627C14.1783 15.5004 13.094 15.3693 12 15.3693C10.906 15.3693 9.82167 15.5004 8.74715 15.7627C7.67262 16.0251 6.61844 16.4108 5.5846 16.92C5.34306 17.0508 5.15191 17.2197 5.01115 17.4266C4.87037 17.6335 4.79998 17.8585 4.79998 18.1016V18.9693ZM12 9.8309C12.66 9.8309 13.225 9.5959 13.695 9.1259C14.165 8.6559 14.4 8.09091 14.4 7.43091C14.4 6.77091 14.165 6.20591 13.695 5.73592C13.225 5.26592 12.66 5.03092 12 5.03092C11.34 5.03092 10.775 5.26592 10.305 5.73592C9.83499 6.20591 9.59999 6.77091 9.59999 7.43091C9.59999 8.09091 9.83499 8.6559 10.305 9.1259C10.775 9.5959 11.34 9.8309 12 9.8309Z" fill="#222222"/>
</g>
</svg>
