<svg width="183" height="178" viewBox="0 0 183 178" fill="none" xmlns="http://www.w3.org/2000/svg">
<g id="vector">
<path id="Vector" d="M173.91 76.2628C173.08 68.1986 171.725 57.3657 169.56 49.6509M169.56 49.6509C169.311 48.7619 163.489 52.5209 163.236 52.7169C157.666 57.0101 152.83 61.9004 148.007 66.9902M169.56 49.6509C164.346 93.395 132.829 124.867 101.427 125.473C98.3149 125.533 94.9275 125.595 91.5491 125.356M91.5491 125.356C86.169 124.974 80.812 123.827 76.6265 120.688C72.7638 117.791 68.9523 112.39 69.6053 107.38C70.8257 98.0224 83.0572 95.3672 89.539 101.748C95.2352 107.355 96.37 119.088 91.5491 125.356ZM91.5491 125.356C91.4474 125.488 91.3431 125.618 91.2361 125.745C65.4087 156.455 21.7399 138.598 6.25351 109.643" stroke="white" stroke-width="3" stroke-miterlimit="1.5" stroke-linecap="round" stroke-linejoin="round"/>
</g>
</svg>
